/* XPM */
static char *result[] = {
/* columns rows colors chars-per-pixel */
"60 30 229 2 ",
"   c #000000",
".  c #0E0201",
"X  c #180502",
"o  c #00001E",
"O  c #050719",
"+  c #051106",
"@  c #25020E",
"#  c #260400",
"$  c #311E0D",
"%  c #250617",
"&  c #301212",
"*  c #392D16",
"=  c #020029",
"-  c #1B0027",
";  c #181526",
":  c #34072F",
">  c #33353D",
",  c #132530",
"<  c #480000",
"1  c #540300",
"2  c #560E15",
"3  c #70130A",
"4  c #4E2109",
"5  c #542513",
"6  c #582719",
"7  c #48351A",
"8  c #512B0F",
"9  c #6A2816",
"0  c #792B18",
"q  c #6A3719",
"w  c #783512",
"e  c #48172A",
"r  c #4D003A",
"t  c #59003E",
"y  c #500E27",
"u  c #68062D",
"i  c #771932",
"p  c #4A2B2E",
"a  c #46252A",
"s  c #53252E",
"d  c #582828",
"f  c #582B38",
"g  c #523C39",
"h  c #5C3736",
"j  c #473E39",
"k  c #782E29",
"l  c #773725",
"z  c #642C39",
"x  c #612C33",
"c  c #6A3338",
"v  c #6E2F29",
"b  c #7F4E1B",
"n  c #524638",
"m  c #4F433D",
"M  c #654525",
"N  c #764A2B",
"B  c #644936",
"V  c #775231",
"C  c #5E0B43",
"Z  c #641E41",
"A  c #5C2744",
"S  c #523641",
"D  c #413E42",
"F  c #652446",
"G  c #6E3B45",
"H  c #693746",
"J  c #733B46",
"K  c #753E49",
"L  c #793A49",
"P  c #732D4C",
"I  c #464542",
"U  c #5D4B45",
"Y  c #554843",
"T  c #585A51",
"R  c #604D47",
"E  c #634F49",
"W  c #664849",
"Q  c #7B434C",
"!  c #75464A",
"~  c #66524C",
"^  c #774D54",
"/  c #6A5D54",
"(  c #775454",
")  c #6C6359",
"_  c #76665E",
"`  c #746E62",
"'  c #767164",
"]  c #797467",
"[  c #842C14",
"{  c #893929",
"}  c #9A383B",
"|  c #8C2C2E",
" . c #A23D3E",
".. c #844C1A",
"X. c #9B4B33",
"o. c #954838",
"O. c #885C35",
"+. c #894F32",
"@. c #A3472E",
"#. c #A84B35",
"$. c #A75336",
"%. c #B3533B",
"&. c #B8573A",
"*. c #8F613A",
"=. c #98673C",
"-. c #B96E3E",
";. c #C1573F",
":. c #84434E",
">. c #89444F",
",. c #814747",
"<. c #934C4A",
"1. c #9A5B49",
"2. c #8B4651",
"3. c #834C53",
"4. c #8A4C55",
"5. c #834450",
"6. c #8B5159",
"7. c #895758",
"8. c #92535C",
"9. c #905D5F",
"0. c #875544",
"q. c #B85846",
"w. c #AE4F49",
"e. c #896847",
"r. c #9C634A",
"t. c #84615D",
"y. c #9C6C5B",
"u. c #8F7048",
"i. c #A86948",
"p. c #B66848",
"a. c #AD7744",
"s. c #BA764A",
"d. c #A46853",
"f. c #B16E53",
"g. c #A2715C",
"h. c #AC7458",
"j. c #B2735A",
"k. c #965961",
"l. c #8A5A64",
"z. c #886864",
"x. c #8D746C",
"c. c #91766D",
"v. c #8C7871",
"b. c #957A71",
"n. c #9A7C73",
"m. c #9C7873",
"M. c #926669",
"N. c #B57C64",
"B. c #A47875",
"V. c #C35B45",
"C. c #CB5E48",
"Z. c #D35A40",
"A. c #CB6244",
"S. c #C76549",
"D. c #D36545",
"F. c #D66A4A",
"G. c #DC6C4B",
"H. c #D66746",
"J. c #C87A49",
"K. c #D6754A",
"L. c #DE7B50",
"P. c #E16E4A",
"I. c #E6714C",
"U. c #E9744E",
"Y. c #E87B51",
"T. c #BD814A",
"R. c #B98657",
"E. c #B18C5D",
"W. c #9E8177",
"Q. c #9E807D",
"!. c #9F8B7E",
"~. c #B98D67",
"^. c #A5837E",
"/. c #AE8165",
"(. c #CB874F",
"). c #CB8856",
"_. c #D78B55",
"`. c #D89459",
"'. c #CA915B",
"]. c #E98856",
"[. c #F28D58",
"{. c #E8995C",
"}. c #F3935B",
"|. c #F49B5E",
" X c #E2824E",
".X c #C59669",
"XX c #D99867",
"oX c #CB9C72",
"OX c #CA8E62",
"+X c #E89861",
"@X c #D4A26D",
"#X c #DAA675",
"$X c #CFA26D",
"%X c #EBA363",
"&X c #F6A768",
"*X c #E5AD77",
"=X c #E4B176",
"-X c #FBB877",
";X c #FEB06D",
":X c #FFC17B",
">X c #AB8C83",
",X c #A78581",
"<X c #B08D84",
"1X c #A9978A",
"2X c #B69389",
"3X c #B8968B",
"4X c #BA988D",
"5X c #B29086",
"6X c #B7AA99",
"7X c #B7B19E",
"8X c #B9B29F",
"9X c #BCB5A2",
"0X c #C4AB9C",
"qX c #F8BF82",
"wX c #EAB881",
"eX c #C8B7A8",
"rX c #CCBAA9",
"tX c #C7B5A4",
"yX c #D2BFAD",
"uX c #FBC383",
"iX c #FFCB89",
"pX c #FDC785",
"aX c #FFD18D",
"sX c #DDD4BD",
"dX c #D8C9B5",
"fX c #DFD7C0",
"gX c #E3D7C1",
"hX c #E3DAC3",
"jX c None",
/* pixels */
"jXjXjXjXjXjXjXjXjXjXjXjXjXjXjXjXjXjXjXjXjXjXjXjXjXjXjXZ F P P H H jXjXjXjXjXjXjXjXjXjXjXjXjXjXjXjXjXjXjXjXjXjXjXjXjXjXjX",
"jXjXjXjXjXjXjXjXjXjXjXjXjXjXjXjXjXjXjXjXjXjXjXjXjXjXjXJ K 5.5.Q ! jXjXjXjXjXjXjXjXjXjXjXjXjXjXjXjXjXjXjXjXjXjXjXjXjXjXjX",
"jXjXjXjXjXjXjXjXjXjXjXjXjXjXjXjXjXjXjXjXjXjXjXjXjXjXy.y.g.j.N.r.r.0.jXjXjXjXjXjXjXjXjXjXjXjXjXjXjXjXjXjXjXjXjXjXjXjXjXjX",
"jXjXjXjXjXjXjXjXjXjXjXjXjXjXjXjXjXjXjXjXjX    o : 3.N.oXoX*XXXOXs.*.* jXjXjXjXjXjXjXjXjXjXjXjXjXjXjXjXjXjXjXjXjXjXjXjXjX",
"jXjXjXjXjXjXjXjXjXjXjXjXjXjXjXjXjXjXjXjX    O - C 7.~.#XqXqX;X%X(.=.7   jXjXjXjXjXjXjXjXjXjXjXjXjXjXjXjXjXjXjXjXjXjXjXjX",
"jXjXjXjXjXjXjXjXjXjXjXjXjXjXjXjXjXjXjXjX  % s z L j.#XqXiXpX-X&X_.-.N #   jXjXjXjXjXjXjXjXjXjXjXjXjXjXjXjXjXjXjXjXjXjXjX",
"jXjXjXjXjXjXjXjXjXjXjXjXjXjXjXjXjXjXjXjX: f +.1.f.OX*XiXaXuX;X}. XK.&.o.l 5 jXjXjXjXjXjXjXjXjXjXjXjXjXjXjXjXjXjXjXjXjXjX",
"jXjXjXjXjXjXjXjXjXjXjXjXjXjXjXjXjXjXjXjXS ! 1.f.).+X-XiXiXqX&X].P.P.F.&.@.9           jXjXjXjXjXjXjXjXjXjXjXjXjXjXjXjXjX",
"jXjXjXjXjXjXjXjXjXjXjXjXjXjXjXjXjXjXjXjXA K d.).{.&X-XpXuX*X`.F.;.P.I.Z.#.v     + $ $ jXjXjXjXjXjXjXjXjXjXjXjXjXjXjXjXjX",
"jXjXjXjXjXjXjXjXjXjXjXjXjXjXjXjXjXjXjXo = f y.XX;X-X-X=X$X'.f.%.@.%.;.&.X.v p B *.=.*.N jXjXjXjXjXjXjXjXjXjXjXjXjXjXjXjX",
"jXjXjXjXjXjXjXjXjXjXjXjXjXjXC C -         = e.XX-XuX=XE.u.V N k 9 k l l c z ! r.T.'.(.O.+   jXjXjXjXjXjXjXjXjXjXjXjXjXjX",
"jXjXjXjXjXjXjXjXjXjXjXjXjXL H G f %         e.$XpXpX$Xe.      .       & e A Q h.`.%X`.s.7     jXjXjXjXjXjXjXjXjXjXjXjXjX",
"jXjXjXjXjXjXjXjXjXjXjXjXjXg.g.N.g.r.N q 1 5 =..X=X=XE.B     # 5 6 8 5 6 s f Q j.].%X{.(.=.M 7 jXjXjXjXjXjXjXjXjXjXjXjXjX",
"jXjXjXjXjXjXjXjXjXjXjXJ y.~.oX#X@X'.T.-.$.@.$.a.E./.u.m : y | X.$.$.#.X.l s h 1.J.].].{.(.a.=.M   jXjXjXjXjXjXjXjXjXjXjX",
"jXjXjXjXjXjXjXjXjXjXt J g.oXwXqX:X%X`. XK.D.&.X.B n j S H <.w.S.D.F.A.A.o.d & l &.G.].[.%X`.a.N     jXjXjXjXjXjXjXjXjXjX",
"jXjXjXjXjXjXjXjXjXjXt K N.*XuXiX:X;X|.{.].Y.V.{ X   = H <.p.S.G.I.I.I.D.#.5   9 #.A.Y.}.%X{.(.O.    jXjXjXjXjXjXjXjXjXjX",
"jXjXjXjXjXjXjXjXjXjXC K j.*X-X:X-X|.}.}.}.}.J.X.    2 } q.S.F.U.I.U.U.H.@.4   9 #.Z.Y.[.}.[.J.+.    jXjXjXjXjXjXjXjXjXjX",
"jXjXjXjXjXjXjXjXjXjXF Q j.@X&X;X%X[.Y.].}.|._.=.8   k %.F.F.G.G.P.I.I.D.@.4   9 %.H.U.Y.Y.K.p.l     jXjXjXjXjXjXjXjXjXjX",
"jXjXjXjXjXjXjXjXjXjXA L h.).{.{. XK.D.L.}.%X`.r.* # { V.F.I.F.F.F.G.G.C.@.6 @ l %.H.P.P.P.Z.#.q     jXjXjXjXjXjXjXjXjXjX",
"jXjXjXjXjXjXjXjXjX% : f +.i.T.(.-.&.&.p._.'.(.O.#   0 #.C.C.C.q.V.V.V.q.o.d y k #.V.;.;.%.@.[ <       jXjXjXjXjXjXjXjXjX",
"k.8.:.s               # 5 q b ....w w o.i.h.1.q     1 |  . . . . . . .} | u u i } } } | [ 3 <                   s Q 8.k.",
"8.4.Q f @                 . X # .   & h Q 4.:.s     y L 4.4.2.2.5.5.2.:.5.:.:.:.2.5.L z &                     @ h Q 6.8.",
"4.3.3.^ ~ E U ~ ~ U U U Y I I > , = ; f ^ l.M.` ` ] v.v.Q.^.^.Q.Q.Q.,XB.^.^.^.>X,X,Xv._ Y I T ` ' ) U p a g U ~ ( 3.4.4.",
"z c ^ z.b.W.Q.n.n.n.n.b.b.b.v.z.( W W ^ M.B.5X6X8X9XeXeXeXeXeXeXeXeXeXeXeXrXrXrXrXrX6X1Xb.v.1X7X9X1Xx.! L z.n.n.z.^ c z ",
"  @ ~ c.<X4X4X4X2X2X2X2X2X3X2X<Xm.9.3.9.B.3X6XdXsXgXhXhXgXgXgXgXgXgXfXgXgXgXgXhXhXhXdX0X3X3XtXsXsXrX>X7.3.B.2X<Xb.E @   ",
"    n x.>X4X4X3X2X2X2X2X2X3X3X<XB.9.3.k.B.^.6XdXsXgXgXsXsXfXsXsXsXsXsXsXsXsXsXfXhXfXdX8X3X3XtXsXfXrX>X6.3.B.2X<Xb.U     ",
"    m t.c.^.^.n.n.b.b.n.n.n.n.b.t.! ! ! 7.c.,X1X6X9X9X9X7X7X7X7X8X7X8X8X8X8X8X8X9X9X6X>Xn.n.1X7X9X1Xx.! J M.n.b.z.m     ",
"jXjXjXY n E E U R U R U U R U U g p a s n n ~ ) ` ' ' ' ' ' ' ' ' ' ' ' ' ' ' ' ' ' _ / R ~ / ` ' ) Y a a g E U U jXjXjX",
"jXjXjX                                                                                                            jXjXjX",
"jXjXjX                                                                                                            jXjXjX"
};
