/* XPM */
static char *result[] = {
/* columns rows colors chars-per-pixel */
"60 60 237 2 ",
"   c #000000",
".  c #00000D",
"X  c #01001D",
"o  c #000013",
"O  c #2E0408",
"+  c #040128",
"@  c #1A1A2F",
"#  c #15152D",
"$  c #000032",
"%  c #00003E",
"&  c #000A37",
"*  c #001B35",
"=  c #011536",
"-  c #1B1B31",
";  c #191E3A",
":  c #17002E",
">  c #2A1337",
",  c #0C2238",
"<  c #242535",
"1  c #2A2935",
"2  c #262539",
"3  c #292838",
"4  c #322C3C",
"5  c #33343D",
"6  c #2B2734",
"7  c #4B0000",
"8  c #6B1400",
"9  c #733602",
"0  c #6B2E0A",
"q  c #453436",
"w  c #4B3939",
"e  c #50302E",
"r  c #653A2A",
"t  c #521820",
"y  c #7A4617",
"u  c #75400E",
"i  c #58443F",
"p  c #7C4C26",
"a  c #784A37",
"s  c #745031",
"d  c #7B641B",
"f  c #000143",
"g  c #00004A",
"h  c #0A0D42",
"j  c #001744",
"k  c #000056",
"l  c #0D2951",
"z  c #362C46",
"x  c #373342",
"c  c #2B2C48",
"v  c #4D1E40",
"b  c #463549",
"n  c #593A44",
"m  c #4B2A4A",
"M  c #3B414A",
"N  c #384F6A",
"B  c #54494B",
"V  c #474956",
"C  c #4D5055",
"Z  c #755345",
"A  c #6E534E",
"S  c #7B664E",
"D  c #4C5561",
"F  c #595963",
"G  c #444965",
"H  c #615C65",
"J  c #54646A",
"K  c #5D6B78",
"L  c #69656B",
"P  c #6F6B72",
"I  c #606C75",
"U  c #7A777B",
"Y  c #7D7A7D",
"T  c #757177",
"R  c #657178",
"E  c #975505",
"W  c #8B5112",
"Q  c #B97100",
"!  c #845628",
"~  c #875937",
"^  c #915D39",
"/  c #975C22",
"(  c #9C632B",
")  c #9B6839",
"_  c #9E773B",
"`  c #A46C36",
"'  c #A97239",
"]  c #A56B2D",
"[  c #A45E00",
"{  c #845A45",
"}  c #96684B",
"|  c #947458",
" . c #8A6654",
".. c #A36D41",
"X. c #A67242",
"o. c #AA7643",
"O. c #AF7C46",
"+. c #B47C4A",
"@. c #AB7552",
"#. c #B77E56",
"$. c #877661",
"%. c #997864",
"&. c #8A7D79",
"*. c #A37E64",
"=. c #77837F",
"-. c #BE892B",
";. c #C88308",
":. c #C18A3A",
">. c #D39135",
",. c #BD8349",
"<. c #BD8555",
"1. c #B69957",
"2. c #AB9256",
"3. c #BDA653",
"4. c #83847F",
"5. c #8B877A",
"6. c #96887A",
"7. c #93876D",
"8. c #A6836A",
"9. c #A58976",
"0. c #B59479",
"q. c #AD966E",
"w. c #B5A363",
"e. c #C78E4A",
"r. c #C59247",
"t. c #D39846",
"y. c #C49652",
"u. c #C59956",
"i. c #CA9756",
"p. c #CC9152",
"a. c #E59D5B",
"s. c #C7A15A",
"d. c #DAAA56",
"f. c #D8AB4F",
"g. c #F1A85C",
"h. c #C59A6E",
"j. c #D7AC65",
"k. c #DCB263",
"l. c #D4BD6C",
"z. c #CCA875",
"x. c #CEAF6A",
"c. c #F4A760",
"v. c #E0B968",
"b. c #E7CC5F",
"n. c #F3D974",
"m. c #F9DF75",
"M. c #EED573",
"N. c #FFE165",
"B. c #FDE275",
"V. c #FFE47B",
"C. c #FFEB7B",
"Z. c #FFE874",
"A. c #FFF27E",
"S. c #D7C06A",
"D. c #697B86",
"F. c #7A7A83",
"G. c #607F90",
"H. c #817E82",
"J. c #6D8289",
"K. c #78858A",
"L. c #688392",
"P. c #798D97",
"I. c #7D97A4",
"U. c #888A8A",
"Y. c #948D89",
"T. c #99928C",
"R. c #8B969A",
"E. c #9C9D9C",
"W. c #979694",
"Q. c #808E93",
"!. c #AF9C8A",
"~. c #A6A59C",
"^. c #B6AA97",
"/. c #899DA5",
"(. c #9AA7A4",
"). c #8EA2AB",
"_. c #ACACA4",
"`. c #A5AAA5",
"'. c #A9B5AB",
"]. c #B1B2AB",
"[. c #B5B3A9",
"{. c #BEBEB4",
"}. c #A7B5B1",
"|. c #C4A685",
" X c #CCB496",
".X c #C8BAA4",
"XX c #BCC0BA",
"oX c #EAD397",
"OX c #FFEC81",
"+X c #C9C7BB",
"@X c #C9C7BA",
"#X c #D7CDB6",
"$X c #DCD3B9",
"%X c #CBC2A8",
"&X c #E6D2B5",
"*X c #FEEFB5",
"=X c #FFF6B5",
"-X c #DEC99E",
";X c #B7C6C0",
":X c #BED7CC",
">X c #BCD1C6",
",X c #CDCDC1",
"<X c #C0CEC3",
"1X c #C6D8CC",
"2X c #D3D2C5",
"3X c #DBDACB",
"4X c #D5D8CB",
"5X c #C7DDD1",
"6X c #D6DCD1",
"7X c #D1CFC2",
"8X c #E6DECB",
"9X c #CEE1D4",
"0X c #D3E3D6",
"qX c #DDE4D5",
"wX c #D9E6D8",
"eX c #DCE9DA",
"rX c #D7E8DA",
"tX c #E3E4D4",
"yX c #E3EDDE",
"uX c #ECECDA",
"iX c #ECE7D4",
"pX c #F2EFDC",
"aX c #E8F0DF",
"sX c #F7F3DA",
"dX c #F2E7CA",
"fX c #DFF0E0",
"gX c #EDF4E2",
"hX c #E6F1E1",
"jX c #F5F5E3",
"kX c #F5F9E6",
"lX c #FBFAE6",
"zX c #F4FCEB",
"xX c #FEFFEC",
"cX c #F8F6E2",
"vX c #FFFFF3",
"bX c #FFFFF9",
"nX c None",
/* pixels */
"nXnXnXnXnXnXnXnXnXnXnXnXnXnXnXnXnXnXnXnXnXnXnXnXnXnXnXnXnXnXnXnXnXnXnXnXnXnXnXnXnXnXnXnXnXnXnXnXnXnXnXnXnXnXnXnXnXnXnXnX",
"nXnXnXnXnXnXnXnXnXnXnXnXnXnXnXnXnXnXnXnXnXnXnXnXnXnXnXnXnXnXnXnXnXnXnXnXnXnXnXnXnXnXnXnXnXnXnXnXnXnXnXnXnXnXnXnXnXnXnXnX",
"nXnXnXnXnXnXnXnXnXnXnXnXnXnXnXnXnXnXnXnXnXnXnXnXnXnXnXnXnXnXnXnXnXnXnXnXnXnXnXnXnXnXnXnXnXnXnXnXnXnXnXnXnXnXnXnXnXnXnXnX",
"nXnXnXnXnXnXnXnXnXnXnXnXnXnXnXnXnXnXnXnXnXnX                                nXnXnXnXnXnXnXnXnXnXnXnXnXnXnXnXnXnXnXnXnXnX",
"nXnXnXnXnXnXnXnXnXnXnXnXnXnXnXnXnXnXnXnXnXnXL T T P P P P P P P P P P T T L nXnXnXnXnXnXnXnXnXnXnXnXnXnXnXnXnXnXnXnXnXnX",
"nXnXnXnXnXnXnXnXnXnXnXnXnXnXnXnXnXnXnXnX  &._.7X2X+X+X+X+X+X+X,X@X@X+X2X7X].F.  nXnXnXnXnXnXnXnXnXnXnXnXnXnXnXnXnXnXnXnX",
"nXnXnXnXnXnXnXnXnXnXnXnXnXnXnXnXnXnXnX  + W.3XxXxXjXjXjXjXjXjXjXjXjXjXxXlX3XW.+   nXnXnXnXnXnXnXnXnXnXnXnXnXnXnXnXnXnXnX",
"nXnXnXnXnXnXnXnXnXnXnXnXnXnXnXnXnXnXnXF U.4XlXbXbXvXvXvXvXvXvXvXvXvXvXbXbXlX2XY.F nXnXnXnXnXnXnXnXnXnXnXnXnXnXnXnXnXnXnX",
"nXnXnXnXnXnXnXnXnXnXnXnXnXnXnXnXnX  L _.3XjXlXvXvXvXxXxXvXxXvXxXxXxXxXvXvXxXjX3X_.L   nXnXnXnXnXnXnXnXnXnXnXnXnXnXnXnXnX",
"nXnXnXnXnXnXnXnXnXnXnXnXnXnXnXnX  + Y.3XxXvXxXxXxXxXxXlXxXxXxXxXxXxXxXxXxXxXvXxX3XY.+   nXnXnXnXnXnXnXnXnXnXnXnXnXnXnXnX",
"nXnXnXnXnXnXnXnXnXnXnXnXnXnXnXnXU W.2XjXvXbXxXxXxXxXxXxXxXxXxXxXxXxXxXxXxXxXbXvXjX2XT.U nXnXnXnXnXnXnXnXnXnXnXnXnXnXnXnX",
"nXnXnXnXnXnXnXnXnXnXnXnXnXnX  P ].3XjXxXxXxXxXxXxXxXxXxXxXxXxXxXxXxXxXxXxXxXxXxXlXkX3X].P   nXnXnXnXnXnXnXnXnXnXnXnXnXnX",
"nXnXnXnXnXnXnXnXnXnXnXnXnXnX  Y 2XlXbXxXxXxXxXxXxXxXxXxXxXxXxXxXxXxXxXxXxXxXxXxXvXbXxX2XF.  nXnXnXnXnXnXnXnXnXnXnXnXnXnX",
"nXnXnXnXnXnXnXnXnXnXnXnXnXnX  U.4XxXbXvXxXxXxXxXxXxXxXxXlXxXxXxXxXxXxXxXxXxXxXxXvXbXxX4XH.  nXnXnXnXnXnXnXnXnXnXnXnXnXnX",
"nXnXnXnXnXnXnXnXnXnXnXnXnXnX  U ,XlXvXxXxXxXxXxXxXxXxXxXxXxXxXlXxXxXxXxXxXxXxXxXxXvXlX,XU   nXnXnXnXnXnXnXnXnXnXnXnXnXnX",
"nXnXnXnXnXnXnXnXnXnXnXnXnXnX  U ,XlXvXvXxXxXlXkXkXlXlXxXxXxXxXxXxXlXlXkXkXlXxXxXxXbXlX+XU   nXnXnXnXnXnXnXnXnXnXnXnXnXnX",
"nXnXnXnXnXnXnXnXnXnXnXnXnXnX  U +XkXbXxXxXkXyXeXwXeXyXkXxXxXvXxXkXyXwXeXeXyXkXxXvXvXlX+XU   nXnXnXnXnXnXnXnXnXnXnXnXnXnX",
"nXnXnXnXnXnXnXnXnXnXnXnXnXnX  U ,XlXbXvXxXgXwX1X:X1X0XgXxXxXxXxXgX0X1X:X1XwXgXxXvXvXlX,XU   nXnXnXnXnXnXnXnXnXnXnXnXnXnX",
"nXnXnXnXnXnXnXnXnXnXnXnXnXnX  U ,XkXxXxXjXyXwX0X9X0XeXaXjXkXkXjXaXeX0X9X9XeXyXjXlXvXlX,XY   nXnXnXnXnXnXnXnXnXnXnXnXnXnX",
"nXnXnXnXnXnXnXnXnXnXnXnXnXnX  U 7XlXxXgXwXyXyXgXzXzXkXhXeXwXrXeXaXzXzXzXgXhXeXeXgXvXlX7XU   nXnXnXnXnXnXnXnXnXnXnXnXnXnX",
"nXnXnXnXnXnXnXnXnXnXnXnXnXnX  U 7XxXlXeX5XrXkXxXxXxXkXeX5X:X:X5XeXcXxXxXxXcXwX5XeXxXlX2XU   nXnXnXnXnXnXnXnXnXnXnXnXnXnX",
"nXnXnXnXnXnXnXnXnXnXnXnXnXnX  Y 2XxXvXrX:XrXzXxXpX8X+X1X:X:X:X:X1X2X3XsXxXzXwX:XrXvXxX2XY   nXnXnXnXnXnXnXnXnXnXnXnXnXnX",
"nXnXnXnXnXnXnXnXnXnXnXnXnXnX  &.3XxXvXeX:XwXxXlX2XW.U.}.:X9X9X:X'.U.W.2XlXxXrX:XrXvXxX3XY   nXnXnXnXnXnXnXnXnXnXnXnXnXnX",
"nXnXnXnXnXnXnXnXnXnXnXnXnXnX  T @XpXkXwX9XyXxXkX[.b l (.:XrXrX5X(.l b [.jXxXyX9XrXkXpX+XT   nXnXnXnXnXnXnXnXnXnXnXnXnXnX",
"nXnXnXnXnXnXnXnXnXnXnXnX    + F W.[.2XqXgXxXbXcX].f g }.yXzXzXeX'.g f ].zXbXxXgXtX2X[.Y.H X     nXnXnXnXnXnXnXnXnXnXnXnX",
"nXnXnXnXnXnXnXnXnXnXnXo X + # x z F ~.8XxXbXbXcX}.c G ;XzXbXbXzXXXG c }.kXbXbXxXqX`.F z 5 @ + X o nXnXnXnXnXnXnXnXnXnXnX",
"nXnXnXnXnXnXnXnXnXnXnXC D V 5 X     P @XuXxXlXsX%X$.7.$XlXxXxXsX%X7.7.%XsXlXlXpX@XP     X 5 V D C nXnXnXnXnXnXnXnXnXnXnX",
"nXnXnXnXnXnXnXnXnX< J D.P.I 5       C U.].$X=X=XoXl.S.oX*X=X=X*XoXl.l.oX*X*X&X].U.C       5 K P.J.J < nXnXnXnXnXnXnXnXnX",
"nXnXnXnXnXnXnXnX  < K R./.K.M   X < ; g C q.M.C.C.B.B.B.V.V.OXV.B.B.B.C.A.M.q.V g ; < X   V D.).R.K <   nXnXnXnXnXnXnXnX",
"nXnXnXnXnXnXnXnXo < P W.E.R.R V x +       d 3.b.m.C.C.Z.N.N.N.N.Z.A.C.n.b.r.d       3 M D I U.E.W.P 2 . nXnXnXnXnXnXnXnX",
"nXnXnXnXnXnXnXnX+ < A | 9.T.R.L.N         e S 2.l.m.C.C.B.B.B.B.Z.C.B.S.2.Z O       @ J L.R.T.9.| A < + nXnXnXnXnXnXnXnX",
"nXnXnXnXnXnXnXnX= ; s / X.9.(./.=.C 1 5 5 % $ B w.n.C.C.B.V.B.B.Z.A.n.w.B & j B 5 @ M D./.(.9...! s < = nXnXnXnXnXnXnXnX",
"nXnXnXnXnXnXnXnX, < e 8 y | Y.E.[.[.~.U.D.l f 4 1.m.OXC.C.C.V.C.C.A.B.2.> k Q.].E.F.D.H.T.T.%.y 0 e < , nXnXnXnXnXnXnXnX",
"nXnXnXnXnXnXnXnX3 2 :   O 0 ^ !.2XpXtX;XI.N k e u.m.OXA.C.C.C.C.A.OXn.3.O K ,XgX0X;XR.H.*.} a O   : < 3 nXnXnXnXnXnXnXnX",
"nXnXnXnXnXnXnXnX# < M J L Z E #.&XcXjX,X).D.N H 2.M.B.B.n.n.n.n.n.B.b.2.B F.3XxXgXXXR.&.} (  .L F M 3 # nXnXnXnXnXnXnXnX",
"nXnXnXnXnXnXnXnX  < K.[..XT.r a !.#X#X X!.Y.D.D.5.w.w.w.w.w.w.w.w.w.w.5.D.E..X&X#X XH. .8 r E..X[.=.-   nXnXnXnXnXnXnXnX",
"nXnXnXnXnXnXnXnX  @ ~.tXjX+XF   ~ *.p.p.p.!.E.I.L.H i B B B B B B i F L.I.E.|.z.i.<.@.0 . H .XjXtX~.-   nXnXnXnXnXnXnXnX",
"nXnXnXnXnXnXnXnX  # ].cXbXtX`.L r 9 E ;.t.z.^.W.F.b : > v v v v > + m F.E.^.h.;.Q [ ~ A P ~.tXbXsX[.@   nXnXnXnXnXnXnXnX",
"nXnXnXnXnXnXnXnX  @ `.iXvXlXtX.XH.O 8 -.d.k.z.0.%.Z ~ ^ ........^ a { *.0.h.i.>.Q 8 t U..X6XxXbXuX~.-   nXnXnXnXnXnXnXnX",
"nXnXnXnXnXnXnXnX  @ ~.tXvXbXbXyX'.V 0 1.j.g.d.e.,._ ..+.e.t.t.e.,.' ..+.e.t.t.t.' 7 b '.gXxXbXvXtX~.-   nXnXnXnXnXnXnXnX",
"nXnXnXnXnXnXnXnX  - ~.iXvXbXbXlX4X`.6.q.1.i.t.t.:.X.o.e.d.d.d.d.e.o.' :.t.>.:.+.*.6.`.4XlXbXbXvXiX~.@   nXnXnXnXnXnXnXnX",
"nXnXnXnXnXnXnXnX  - ].pXbXbXvXxXjXuX+XT.S _ i.d.e.X.o.y.d.k.d.d.y.o.X.y.d.s.) Z T.+XiXjXxXvXbXbXsX[.-   nXnXnXnXnXnXnXnX",
"nXnXnXnXnXnXnXnX  @ W.3XxXxXxXxXvXvX8XR.f d u.k.u.o.o.u.j.k.v.k.u.o.o.y.k.s.s = W.tXvXvXxXxXvXxX3XW.@   nXnXnXnXnXnXnXnX",
"nXnXnXnXnXnXnXnXnX@ 5.].2XuXlXvXvXlX9XP.$ p s.l.u.X.o.u.j.v.k.k.u.o.o.s.k.s.p % Q.6XvXvXvXlXuX,X].4.@ nXnXnXnXnXnXnXnXnX",
"nXnXnXnXnXnXnXnXnXnXnXC 4.+XlXxXzXyX;XJ.: ! s.k.u.X.o.u.j.k.v.j.y.o.X.u.l.s.d : J.>XfXzXvXkX+XU.C nXnXnXnXnXnXnXnXnXnXnX",
"nXnXnXnXnXnXnXnXnXnXnX  # ].yXxXyX>X(.L.V | j.k.y.X.X.y.d.v.v.k.y.X.X.u.k.s.| V J.(.>XaXlXuX].#   nXnXnXnXnXnXnXnXnXnXnX",
"nXnXnXnXnXnXnXnXnXnXnX  3 '.yXyX>XR.J.L.K.T.x.d.r.] ] r.f.f.f.f.:.] ] :.f.s.9.J.L.L.R.<XaXeX_.3   nXnXnXnXnXnXnXnXnXnXnX",
"nXnXnXnXnXnXnXnXnXnXnX  V `.5X5X(.C N L.).^.l.f.r.' ' r.f.k.d.d.y.' ' :.f.x.^.R.L.N D (.5X5X(.V   nXnXnXnXnXnXnXnXnXnXnX",
"nXnXnXnXnXnXnXnXnXnXnX  M Q.}.}.=.e n F.E.^.^.x.q.*.9. XoXoXoXoX|.q.8.|.oX-X[.E.F.n t H.'.}.K.M   nXnXnXnXnXnXnXnXnXnXnX",
"nXnXnXnXnXnXnXnXnXnXnXo 5 J =.=.$.~ ) @.9.!.~.~.E.U._.2XdXsXsXsX$X~.E.+XsXdX.X8.} ^ { $.4.D.J 5 o nXnXnXnXnXnXnXnXnXnXnX",
"nXnXnXnXnXnXnXnXnXnXnXnX1 = + q a } ' / ` 6.W././.I.}.qXxXbXvXlX6X(.(.6XxXsX.XX.E ] ) ~ e & = < nXnXnXnXnXnXnXnXnXnXnXnX",
"nXnXnXnXnXnXnXnXnXnXnXnX< X   O r ~ ~ W !  .U.W.W.T.~.@X8XdXdX8X@XE.`.@X8X&X!.! 0 ! ~ r O   X < nXnXnXnXnXnXnXnXnXnXnXnX",
"nXnXnXnXnXnXnXnXnXnXnXnX2 c > > 6 1 < + 6 Z  .8.8.@.9.0.|.|.|.!.0.8.8.0.|.0. .6 X < 6 6 > > 2 3 nXnXnXnXnXnXnXnXnXnXnXnX",
"nXnXnXnXnXnXnXnXnXnXnXnX3 c c z b w w q w a ^ ] ) ] ( / E E E W / ( ( ( E ! a w w w w b z c c 3 nXnXnXnXnXnXnXnXnXnXnXnX",
"nXnXnXnXnXnXnXnXnXnXnXnX2 j j n } +.e.<.#...~ p p s p 9 9 9 9 9 y p p 9 0 W ) +.p.#.@.} B j j 3 nXnXnXnXnXnXnXnXnXnXnXnX",
"nXnXnXnXnXnXnXnXnXnXnXnX3 % f A #.a.c.c.a.e.~ < ; q q q q q q q q q q # @ { e.a.c.c.a.<.A g % < nXnXnXnXnXnXnXnXnXnXnXnX",
"nXnXnXnXnXnXnXnXnXnXnXnX2 % f A #.a.c.c.a.e.Z $ $ = = = * * * * = * = $ $ a y.a.c.c.a.#.A % % 2 nXnXnXnXnXnXnXnXnXnXnXnX",
"nXnXnXnXnXnXnXnXnXnXnXnXnXnX& B  .@.#.#.@.} n $ + * * * * * * * * * * $ $ i } @.#.#.@. .B & nXnXnXnXnXnXnXnXnXnXnXnXnXnX",
"nXnXnXnXnXnXnXnXnXnXnXnXnXnX< 4 b b b b b b 4 < < < 3 3 2 < < 3 < 3 3 < < 4 x b b b m x 4 < nXnXnXnXnXnXnXnXnXnXnXnXnXnX",
"nXnXnXnXnXnXnXnXnXnXnXnXnXnXnX, % f g g f f * 6 1 < 3 3 < 1 1 1 1 1 1 1 4 * f f g g f % ; nXnXnXnXnXnXnXnXnXnXnXnXnXnXnX"
};
