/* XPM */
static char *result[] = {
/* columns rows colors chars-per-pixel */
"60 60 193 2 ",
"   c #000001",
".  c #00000B",
"X  c #1D000C",
"o  c #000016",
"O  c #00001C",
"+  c #1D0013",
"@  c #2B0001",
"#  c #370000",
"$  c #31000F",
"%  c #210010",
"&  c #2B0015",
"*  c #330013",
"=  c #380015",
"-  c #370019",
";  c #2C141D",
":  c #000223",
">  c #010C25",
",  c #010029",
"<  c #000D2C",
"1  c #041126",
"2  c #091126",
"3  c #03142A",
"4  c #0B152B",
"5  c #0E192C",
"6  c #121427",
"7  c #181220",
"8  c #15162D",
"9  c #11192A",
"0  c #1A1B2C",
"q  c #0D0B31",
"w  c #140F32",
"e  c #061532",
"r  c #0B1D32",
"t  c #151131",
"y  c #1D1531",
"u  c #161C31",
"i  c #1A1D34",
"p  c #250327",
"a  c #240D2B",
"s  c #310D27",
"d  c #2A1D27",
"f  c #241E2D",
"g  c #2A1F2C",
"h  c #3C1421",
"j  c #321D23",
"k  c #3E1823",
"l  c #371B2A",
"z  c #211731",
"x  c #231931",
"c  c #2B1D31",
"v  c #122033",
"b  c #1B2134",
"n  c #1A2439",
"m  c #26212C",
"M  c #2B232C",
"N  c #362226",
"B  c #3A2726",
"V  c #32262C",
"C  c #39252B",
"Z  c #34292B",
"A  c #3B2C2D",
"S  c #3F302B",
"D  c #2E2030",
"F  c #212937",
"G  c #21253A",
"H  c #242A3D",
"J  c #2A2B38",
"K  c #2A2B3D",
"L  c #352431",
"P  c #3A2732",
"I  c #342A36",
"U  c #3C2932",
"Y  c #332D38",
"T  c #2C353F",
"R  c #38353C",
"E  c #353C3E",
"W  c #4A0800",
"Q  c #401107",
"!  c #4A1C00",
"~  c #481613",
"^  c #4F2404",
"/  c #512709",
"(  c #502F1A",
")  c #59341A",
"_  c #442B23",
"`  c #41262B",
"'  c #432D2E",
"]  c #4B3123",
"[  c #42312C",
"{  c #4A362C",
"}  c #4F392D",
"|  c #553726",
" . c #533828",
".. c #533B2C",
"X. c #593E2D",
"o. c #422E31",
"O. c #463132",
"+. c #4C3533",
"@. c #4A3935",
"#. c #503734",
"$. c #543A32",
"%. c #5B3E32",
"&. c #5D412E",
"*. c #4E4239",
"=. c #5E4132",
"-. c #64462E",
";. c #67482F",
":. c #6C4B2F",
">. c #704D2F",
",. c #644532",
"<. c #684731",
"1. c #6D4B30",
"2. c #714E30",
"3. c #775230",
"4. c #1F2E43",
"5. c #232D41",
"6. c #2B2E43",
"7. c #253143",
"8. c #2C3244",
"9. c #2D3649",
"0. c #313642",
"q. c #343943",
"w. c #31364A",
"e. c #343B4B",
"r. c #393E4D",
"t. c #373F51",
"y. c #3A3F51",
"u. c #38434A",
"i. c #38454D",
"p. c #3A494A",
"a. c #2C4956",
"s. c #294F5D",
"d. c #3D4455",
"f. c #304854",
"g. c #384C52",
"h. c #3F4658",
"j. c #2B515C",
"k. c #3F5358",
"l. c #2E5864",
"z. c #275E6B",
"x. c #285E6C",
"c. c #335B64",
"v. c #35626B",
"b. c #2E6773",
"n. c #346974",
"m. c #3F6F77",
"M. c #3A7079",
"N. c #404656",
"B. c #444B55",
"V. c #404758",
"C. c #434A5A",
"Z. c #4B535E",
"A. c #484F60",
"S. c #4C5562",
"D. c #4F5864",
"F. c #535C66",
"G. c #545B69",
"H. c #555D69",
"J. c #556A67",
"K. c #5B626D",
"L. c #59736F",
"P. c #5D6671",
"I. c #5E6972",
"U. c #447379",
"Y. c #527878",
"T. c #636C75",
"R. c #677079",
"E. c #6A747D",
"W. c #4B7E82",
"Q. c #6D7A83",
"!. c #737E87",
"~. c #4F8184",
"^. c #518386",
"/. c #5F8A87",
"(. c #5F8B89",
"). c #608A87",
"_. c #618C89",
"`. c #75838B",
"'. c #7A878F",
"]. c #64918E",
"[. c #7E8C94",
"{. c #639695",
"}. c #659896",
"|. c #659A98",
" X c #6EA39E",
".X c #6FA6A2",
"XX c #71A6A1",
"oX c #74ABA5",
"OX c #77AEA9",
"+X c #77B0AA",
"@X c #78B0AA",
"#X c #85949C",
"$X c #8C9DA4",
/* pixels */
"x.x.z.z.x.z.x.b.n.a.p a D c x q o.<.3.2.&.Z &.:.=.@.+.+.+.+.+.+.+.+.+.+.+.U c o.#.#.+.P x c c x a a f.n.b.x.x.x.x.x.x.x.",
"W.W.W.W.W.W.W.m.j.N.[ ` L D L U $.&.<.-.} V } :.=.+.+.+.+.+.+.+.+.+.#.#.#.U M P +.O.o.P L c L o.o.l e.l.m.W.W.W.W.W.W.W.",
" X X.X X XoXXXY.J | :.%.o.D U ,.-.[ Z A V m &.1.=.O.+.+.+.+.+.#.+.+.+.#.#.O.M M c c L O.+.c o.-.<.+.l G Y.XXoX X X XXX X",
"{.{.{.{.|.|.].J.( ) -.@.U c P =.&.{ { { { } X.&.&.=.+.+.+.+.+.+.+.+.+.O.O.[ S P P L P O.o.c o.=.%.+.h h J.].{.|.{.{.{.}.",
"v.n.n.n.M.c.u.&.<.X.V D c c D M { ;.2.1.1.1.X.A &.1.%.o.+.+.+.O.+.+.+.o.Z O.+.+.+.+.O.U Z D c D c c U +.o.e.c.M.n.n.n.n.",
"^.^.^.U.j.R ^ ) &.&.{ [ P D Z { X.-.<.,.,.<.+.m #.<.,.,.=.=.=.=.=.,.=.} M P +.+.+.#.+.o.Z D Z +.+.P U O.k - K s.U.^.W.^.",
"XXXXoX).q./ :.X.Z &.1.=.O.V [ -.<.$.+.+.#.+.U c U $.-.>.2.1.1.2.:.2.1.&.Z A +.+.+.+.+.#.O.V { -.<.#.U c U +.- q.).oXXXXX",
"oXoXOX_.E # X.X.$.=.,.$.+.Z S =.,.+.O.+.+.+.+.U P U @.=.$.%.$.$.%.$.$.X.&.&.,.<.,.#.+.+.+.V { :.1.#.O.U U U @ R ).OXoXoX",
"XXXXoX).E X Z X.1.=.+.+.+.A Z O.+.+.+.+.+.#.#.+.U c c c x c c c c x x +.:.2.1.1.<.%.+.#.+.Z { :.1.#.+.+.o.c + q.).oXXXXX",
"XXoXoX).E Q X.-.%.#.o.+.[ A Z +.#.+.+.U P P U P D f f m m m m f m m f U ..$.$.#.$.=.<.<.&.Z { :.,.+.+.+.o.U & q.).oXoXXX",
"XXXXoX).E ^ <.,.+.+.#.#.@.A Z O.+.+.o.c c c c D Z A Z Z Z A Z Z Z Z A M x x x t D =.2.2.-.A [ <.,.$.#.+.#.#.= q.).OXXXXX",
"XXXXoX).u.= =.,.<.<.<.1.=.{ V L P U I M M M m Z ..=...O.O.[ O.+.O.{ O.A M m f 4 8 U } #.O.Z S $.,.,.1.,.1.<.~ q./.oXXXXX",
"XXoXoX).0.& O.=.1.1.:.:.-.{ m c c c D Z Z A V Z ,.2.%.+.+.#.+.+.+.#.#.O.Z A [ M 5 6 y y f M Z o.$.1.:.:.:.-.~ T (.oXoXXX",
"XXXXoX).q.% V S { { { { { Z D M M M A O.+.+.Z Z &.1.%.+.+.+.+.#.#.+.#.' Z } -.{ f 9 3 4 y x L A A O.[ { { { $ q.(.oXXXXX",
"XXXXoX).q.$ [ A M V V M m D D A S Z O.+.#.#.' Z &.1.%.+.+.+.+.#.+.#.@.U Z &.2.&.Z m 4 3 4 f m M Z A Z Z Z V % q.).oXXXXX",
"XXoXoX).q.! <.=.+.O.O.L c M Z O.+.O.+.+.#.+.A Z &.1.=.+.+.+.+.+.+.#.+.S Z ..1.=.[ Z m 5 3 8 0 f +.-.=.+.O.{ & q.).oXXXXX",
"XXXXoX(.E ^ 2.,.#.+.@.P c M Z +.@.+.#.+.#.+.A Z &.2.%.+.+.+.+.+.+.#.+.U Z &.2.=.+.O.Z m 9 1 5 y $.2.<.+.+.+.- q.(.OXXXXX",
"XXoX+X].E ^ 1.,.+.+.+.P x M Z O.#.+.+.+.#.+.A Z &.:.%.+.+.+.+.+.+.+.#.' V X.:.=.+.+.O.S M 9 4 0 +.2.<.+.+.+.* q.].@XXXXX",
"XX X].L.*.) ,.=.+.+.o.L V { ..#.+.+.+.+.+.+.A Z -.2.%.+.+.+.+.#.#.#.@.U V &.;.=.O.#.+.S M 9 3 0 o.X.=.%.$.+.h R L.]. XXX",
"oX].k.] ;.,.#.+.+.P D m S &.<.$.+.+.+.#.@.$.U Z &.2.=.+.#.+.#.#.+.#.$.O.V &.:.=.+.#.O.A M 9 3 3 0 c $.<.,.+.+.O.l k.{.oX",
"OX].E W :.1.+.+.+.P x m [ -.2.$.+.+.+.+.$.+.A Z ]  .' C Z A C A Z C N N Z X.1.,.+.+.+.O.P M 0 3 < t $.2.-.+.+.+.@ T _.OX",
"oX].u.! 1.,.+.+.+.U c c S ,.1.$.+.+.+.+.+.+.O.Z 0 2 2 4 6 4 4 4 4 1 > 0 V X.1.%.+.+.+.#.O.A M 5 4 x $.1.,.+.+.+.$ i.].oX",
"oX].p.! 1.-.+.+.@.P c m S <.1.%.+.+.+.+.#.#.B 7 q.C.i.8.5.5.8.8.5.e.k.u.0 X.2.,.O.+.+.#.+.S m 9 4 x #.2.=.+.+.+.$ i.].oX",
"oX].p.! 1.-.+.+.+.P c f S ,.1.$.O.+.+.+.#.+.j v K.E.H.d.C.C.C.V.h.G.E.H.5 ( 1.,.+.+.+.@.O.S m 9 4 z $.1.,.+.+.+.$ u.{.oX",
"oX].p.! :.,.#.+.@.P g f S -.1.$.+.+.+.+.` V r.F.'.#XP.8.G.P.S.A.H.!.$XQ.H ; { +.+.+.+.+.{ S M 9 4 x $.:.,.+.+.+.$ i.].oX",
"oX].p.! :.-.#.+.+.U c m [ -.1.$.+.+.#.#.N > B.Q.#X$XP.0.K.T.C.C.P.'.$X`.w., < Z #.#.+.#.{ Z M 9 q x $.:.,.+.+.O.$ i.].oX",
"oX].p.! 1.-.#.+.+.P c f S -.1.%.O.+.#.#.B : e.G.K.P.I.H.Z.u.8.9.V.K.Q.P.d.n : B #.#.@.+.O.S M 5 4 x $.1.-.+.+.+.$ i.].oX",
"oX].p.! 1.,.+.+.+.P c m [ -.<.$.+.+.+.+.Z b 9.h.8.8.K.T.q.  O 4 y 5.9.h.C.e.i Z +.#.#.#.O.Z M 9 4 z #.2.=.+.+.+.* i.].OX",
"oX].p.! 1.,.#.+.+.P D f S ,.1.%.+.#.o.M K i.t.y.H.K.Z.q.b O 1 2 4 n 8.y.C.h.t.K m ' #.#.+.S m 9 4 x $.:.,.+.+.O.$ i.].oX",
"oX].p.! 1.,.@.+.#.U c m S <.1.$.O.+.A > 7.C.A.S.T.K.u.  : 5 5 2 1 u G 0.d.C.C.7.1 A #.#.O.A m 5 4 a $.>.-.+.+.+.$ i.].oX",
"oX].p.! <.<.+.+.+.P c f S -.1.$.+.#.' 6 4.d.H.T.Z.T v 1 3 4 4 4 2 5 9 G 9.d.C.7.6 A #.#.+.A m 8 4 x $.:.=.+.+.+.$ i.].oX",
"oX].p.! :.<.+.+.+.P c m [ -.<.$.+.+.U 6 H N.T.E.B.  o 5 5 5 4 4 4 3 > 0 H y.h.8.6 U #.#.O.A M 8 4 x #.:.,.+.+.+.$ i.].oX",
"OX].p.! 1.,.#.+.+.P c f S -.<.$.+.+.U 6 5.d.P.E.C.  O 9 9 4 4 4 4 1 1 v K y.V.8.6 U #.#.+.A m 9 4 x $.1.,.+.#.+.$ i.].oX",
"oX].p.! 1.-.#.+.@.U c f S -.<.%.+.#.U 6 5.N.G.P.F.i.F O > 4 9 2 3 9 0 J e.h.V.7.6 A #.#.O.U m 9 4 z #.2.=.+.+.+.$ u.].oX",
"oX].p.! 1.,.+.+.+.P D m [ -.1.$.+.+.o.6 5.V.C.C.T.T.i.. > 4 5 2 3 9 H e.d.C.V.7.6 ` #.#.{ Z M 9 4 f $.1.,.+.+.O.$ i.{.oX",
"oX].p.! 1.,.#.+.+.P c m [ -.<.%.+.#.A 6 7.V.h.h.D.P.F.B.H > 3 9 b 6.e.d.C.C.V.5.6 A #.#.O.S M 9 q x #.1.-.O.#.+.$ i.].oX",
"OX].p.! ;.-.+.+.#.P c m [ -.1.$.+.+.U 6 5.h.C.C.N.C.T.T.i.o > v H e.N.C.V.C.h.7.6 A #.#.@.A m 5 4 x #.2.=.+.+.+.$ i.].oX",
"oX].p.! 1.,.+.+.@.P c m S -.1.$.+.+.A > 7.C.h.d.D.H.H.Z.T O 1 u b 8.y.h.C.C.C.7.> A #.#.+.A M 9 4 x $.1.,.+.#.O.$ i.{.oX",
"oX].p.! 1.,.#.+.+.P c x [ -.1.$.+.+.' 6 7.d.C.C.T.T.N.o > 4 6 2 1 i H e.V.C.V.7.0 ` #.#.{ Z M 5 4 x $.:.,.O.+.+.$ i.].oX",
"oX].p.^ :.-.#.+.+.U c m S -.1.%.+.+.+.Z I 8.S.K.G.B.F o > 2 1 1 1 2 0 5.w.w.8.Y A +.@.#.{ S M 5 4 a $.:.,.#.+.+.$ i.].oX",
"oX].p.! 1.,.+.+.+.P c m [ -.1.%.O.+.+.#.N > Z.R.B.o : 9 5 8 4 4 5 4 4 x 8.n > A #.+.+.#.+.A m 9 4 x #.1.,.+.+.+.& i.].oX",
"OX].p.! 1.-.+.+.@.U c f A -.1.$.+.+.#.#.N > d.G.d., O , i H H i , , n e.d.5., Z #.#.+.+.+.Z M 9 4 z $.1.,.+.#.O.$ i.].OX",
"oX].p.! 1.-.#.+.+.U g f S -.<.%.+.+.+.#.A f 5.y.r.r.C.C.e.6.6.t.C.N.8.e.d.q.m ` +.#.+.#.O.A M 9 4 x $.>.,.+.+.+.$ p.].oX",
"oX].p.! 1.,.+.+.+.U c f S <.1.$.+.+.+.+.+.' M H Z.T.[.[.F.w 6.P.#X`.e.< F @.-.$.+.+.+.#.+.S m 9 4 x $.1.,.+.+.O.$ i.].oX",
"oX].p.! :.<.+.+.#.P c f S -.1.$.+.+.+.+.#.@.j 3 C.E.#X#XH.n e.T.#X'.d., >  .2.,.+.+.+.#.O.S m 9 q x $.1.<.+.+.[ $ i.].oX",
"oX].p.! ;.<.+.+.@.L c m [ -.1.$.O.+.+.+.#.+.N 3 d.D.F.S.C.h.V.A.F.S.C.7.3  .:.,.+.+.+.+.+.A M 9 4 z $.<.,.+.+.+.$ i.].oX",
"oX].p.! :.<.+.+.+.P c c [ -.1.$.+.+.+.+.#.+.A 0 7.9.e , 9.d.d.8., u e.9.0 ..1.=.+.O.+.#.{ Z m 5 4 z $.1.,.+.+.+.* i.].oX",
"OX].p.! :.<.@.+.+.U c m [ -.1.$.+.#.+.+.#.+.[ M v e 3 3 r v r 5 3 e r v M &.1.=.+.+.+.#.{ S M 5 4 f $.1.=.+.+.+.$ i.].OX",
"oX].p.! :.,.#.+.+.P D f S -.1.$.+.+.+.#.#.+.O.Z A _ Z g d d d g M m d m Z &.:.=.+.O.+.#.+.U M 5 4 f #.2.,.+.+.O.$ i.].oX",
"oX].p.! :.-.#.+.+.U c m S -.1.$.+.+.+.+.+.+.A Z X.1.%.O.+.+.O.+.+.+.+.A Z X.:.=.+.+.+.#.+.Z M 9 4 0 $.1.,.+.+.+.* p.].oX",
"oX].p.! 1.,.#.+.+.U c m [ -.1.$.O.+.+.+.#.#.U Z &.2.%.+.+.#.#.$.#.$.#.o.V X.>.,.+.+.+.#.O.A M 9 4 x #.2.=.+.+.+.$ u.].oX",
"OX].p.! 1.,.+.+.@.P c x S -.<.%.+.+.+.+.@.#.A Z &.1.%.+.+.+.+.+.+.+.+.o.Z X.1.%.+.+.+.@.+.A m 5 4 x $.1.-.+.+.+.& i.].oX",
"oX].p.! :.-.#.+.+.U c m S ;.1.$.O.+.+.+.+.+.Z Z &.>.=.O.+.+.+.+.+.+.+.U V X.:.=.O.O.+.+.{ Z M 9 4 x $.:.=.+.+.+.$ i.].oX",
"oX].p.! :.,.#.+.+.U c m S ,.1.$.+.+.+.#.@.+.o.Z &.<.=.+.+.+.@.@.+.#.@.o.Z X.:.=.+.#.#.#.{ S m 5 4 a $.:.,.+.+.+.$ i.].oX",
"oX].p.! <.,.@.+.@.P m M S $.,.,.,.,.-.,.<.-...Z @.,.,.-.,.,.,.-.<.<.<...V +.,.,.,.-.,.$.O.S M 5 q x $.:.,.+.+.O.$ i.{.oX",
"oX].p.! :.<.+.+.#.P c M A A $.-.1.1.1.1.1.<.X.V P +.<.:.:.:.:.:.;.1.:.X.Z Z +.=.1.2.1.$.O.A M 5 4 x $.:.,.#.#.O.$ d._.OX",
"@X{.p.W 1.-.#.+.+.P c M Z Z [ { ..} } } ..} [ Z Z S { } } } } } ..} ..[ Z Z A { ..} } [ A Z M 5 3 x $.2.,.+.#.+.# u.{.OX",
"XX(.p.] <.,.+.+.+.P c L V Z V M M M M M M M V Z V V M M M D M M M M m V Z V M M M M M V Z Z M 0 8 x #.<.%.+.+.o.s g.(.XX",
"~.U.v.g.O.` L L P D D D D D D D m D M D D m D D D D D m D m D m D D M m L D M D D D M M D D m c x c P ' o.P l P f.c.U.W.",
"z.b.n.l.n p c x x c c c c c c c c c c c c c c c c c D D c c c c c c c c c c c c c c c c c c c c D D x z x c p J c.b.b.x."
};
