/* XPM */
static char *result[] = {
/* columns rows colors chars-per-pixel */
"60 60 226 2 ",
"   c #000000",
".  c #04050A",
"X  c #000015",
"o  c #181817",
"O  c #001019",
"+  c #2B0100",
"@  c #331107",
"#  c #001D2C",
"$  c #001928",
"%  c #000E2B",
"&  c #00252D",
"*  c #00292F",
"=  c #082A2E",
"-  c #1B2C2F",
";  c #1F2424",
":  c #002531",
">  c #002A31",
",  c #0E2D32",
"<  c #1C2F32",
"1  c #183337",
"2  c #242524",
"3  c #252C2D",
"4  c #2E2D2C",
"5  c #282827",
"6  c #352C29",
"7  c #34302E",
"8  c #3B322E",
"9  c #282F30",
"0  c #2B3232",
"q  c #2D393A",
"w  c #263739",
"e  c #333433",
"r  c #3C3532",
"t  c #343B3B",
"y  c #3B3B3A",
"u  c #3C3936",
"i  c #2F302F",
"p  c #570300",
"a  c #441E03",
"s  c #531600",
"d  c #6A0300",
"f  c #720000",
"g  c #7E0000",
"h  c #6A1D00",
"j  c #582A0C",
"k  c #692C01",
"l  c #782E00",
"z  c #763604",
"x  c #643415",
"c  c #7B3C12",
"v  c #4C2F23",
"b  c #44332D",
"n  c #4A372E",
"m  c #4E3125",
"M  c #52362B",
"N  c #59382B",
"B  c #483B36",
"V  c #553D33",
"C  c #593E33",
"Z  c #6B3F2B",
"A  c #663A27",
"S  c #723F26",
"D  c #7E441F",
"F  c #5D4338",
"G  c #4F423D",
"H  c #73422B",
"J  c #7B462C",
"K  c #794125",
"L  c #6A4433",
"P  c #664436",
"I  c #7C4C34",
"U  c #744936",
"Y  c #6C422C",
"T  c #173D43",
"R  c #2C3C40",
"E  c #2C4549",
"W  c #3C4344",
"Q  c #374447",
"!  c #444443",
"~  c #484B4A",
"^  c #5B4A44",
"/  c #424F51",
"(  c #495355",
")  c #5B5B5B",
"_  c #53595A",
"`  c #6A534A",
"'  c #785649",
"]  c #635754",
"[  c #6F4F42",
"{  c #545F61",
"}  c #5B6D72",
"|  c #546164",
" . c #636262",
".. c #6B6968",
"X. c #6D7475",
"o. c #757574",
"O. c #7C7C7C",
"+. c #757C7E",
"@. c #76706E",
"#. c #921400",
"$. c #8E2500",
"%. c #873700",
"&. c #923200",
"*. c #983900",
"=. c #932600",
"-. c #944302",
";. c #9A4803",
":. c #93491C",
">. c #9B4E1D",
",. c #974B14",
"<. c #8F4713",
"1. c #A34B00",
"2. c #AD4300",
"3. c #B64C00",
"4. c #AA5100",
"5. c #BA5200",
"6. c #BD5D00",
"7. c #A3521F",
"8. c #A8551F",
"9. c #A04E13",
"0. c #834625",
"q. c #84492A",
"w. c #894927",
"e. c #944C22",
"r. c #9A4E21",
"t. c #9E5021",
"y. c #98522A",
"u. c #8D5436",
"i. c #87543B",
"p. c #9A5A37",
"a. c #824D33",
"s. c #A25322",
"d. c #A95824",
"f. c #B45F2A",
"g. c #B35F23",
"h. c #A85E34",
"j. c #B5612E",
"k. c #BA642B",
"l. c #A9623A",
"z. c #BE6833",
"x. c #BB6B3D",
"c. c #B66738",
"v. c #CA5C00",
"b. c #C45500",
"n. c #C86507",
"m. c #D26400",
"M. c #C3651F",
"N. c #C46B35",
"B. c #C66E37",
"V. c #CC733D",
"C. c #C9713A",
"Z. c #D47434",
"A. c #D2763E",
"S. c #D8793F",
"D. c #8A5B49",
"F. c #905842",
"G. c #A56345",
"H. c #A1654C",
"J. c #B36A44",
"K. c #A46C58",
"L. c #AD735D",
"P. c #93786F",
"I. c #B07A65",
"U. c #CD7541",
"Y. c #D17741",
"T. c #D57942",
"R. c #DB7C43",
"E. c #B78C7C",
"W. c #D68155",
"Q. c #E38144",
"!. c #C78467",
"~. c #DC8E6A",
"^. c #D78E6D",
"/. c #DF906A",
"(. c #D4947A",
"). c #E1916B",
"_. c #E89B79",
"`. c #7F8485",
"'. c #838485",
"]. c #8B8B8B",
"[. c #848A8C",
"{. c #949393",
"}. c #9D9D9D",
"|. c #959B9C",
" X c #938E8C",
".X c #B59C95",
"XX c #B59A91",
"oX c #AAA29F",
"OX c #979EA0",
"+X c #9DA1A2",
"@X c #A9A8A8",
"#X c #BEADA7",
"$X c #B3B4B5",
"%X c #BBBBBB",
"&X c #B7B8B8",
"*X c #AEB2B3",
"=X c #C29E94",
"-X c #C7A499",
";X c #DEAF9E",
":X c #C8ACA4",
">X c #D5BEB8",
",X c #D1C2BE",
"<X c #E6C2B6",
"1X c #BEC5C7",
"2X c #CACBCB",
"3X c #C4C7C7",
"4X c #D5C7C3",
"5X c #CDD0D1",
"6X c #D3D3D3",
"7X c #DBD9D9",
"8X c #D7D0CE",
"9X c #E8D3CC",
"0X c #F2D2C7",
"qX c #F2D4CA",
"wX c #ECDBD6",
"eX c #EFCEC3",
"rX c #E3E4E4",
"tX c #EDECED",
"yX c #EAE8E8",
"uX c #F4ECE9",
"iX c #F2F3F3",
"pX c #F7F9FA",
"aX c #FEFEFE",
"sX c #FEF7F5",
"dX c #EEF3F4",
"fX c None",
/* pixels */
"fXfXfXfXfXfXfXfXfXfXfXfXfXfXfXfXfXfXfXfXfXfXfXfXfXfXfXfXfXfXfXfXfXfXfXfXfXfXfXfXfXfXfXfXfXfXfXfXfXfXfXfXfXfXfXfXfXfXfXfX",
"fXfXfXfXfXfXfXfXfXfXfXfXfXfXfXfXfXfXfXfXfXfXfXfXfXfXfXfXfXfXfXfXfXfXfXfXfXfXfXfXfXfXfXfXfXfXfXfXfXfXfXfXfXfXfXfXfXfXfXfX",
"fXfXfXfXfXfXfXfXfXfXfXfXfXfXfXfXfXfXfXfXfXfXfXfXfXfXfXfXfXfXfXfXfXfXfXfXfXfXfXfXfXfXfXfXfXfXfXfXfXfXfXfXfXfXfXfXfXfXfXfX",
"fXfXfXfXfXfXfXfXfXfXfXfXfXfXfXfXfXfXfXfXfXfXfXfXfXfXfXfXfXfXfXfXfXfXfXfXfXfXfXfXfXfXfXfXfXfXfXfXfXfXfXfXfXfXfXfXfXfXfXfX",
"fXfXfXfXfXfXfXfXfXfXfXfXfXfXfXfXfXfXfXfXfXfXfXfXfXfXfXfXfXfXfXfXfXfXfXfXfXfXfXfXfXfXfXfXfXfXfXfXfXfXfXfXfXfXfXfXfXfXfXfX",
"fXfXfXfXfXfXfXfXfXfXfXfXfXfXfXfXfXfXfXfXfXfXfXfXfXfXfXfXfXfXfXfXfXfXfXfXfXfXfXfXfXfXfXfXfXfXfXfXfXfXfXfXfXfXfXfXfXfXfXfX",
"fXfXfXfXfXfXfXfXfXfXfXfXfXfXfXfXfXfXfXfXfXfXfXfXfXfXfXfXfXfXfXfXfXfXfXfXfXfXfXfXfXfXfXfXfXfXfXfXfXfXfXfXfXfXfXfXfXfXfXfX",
"fXfXfXfXfXfXfXfXfXfXfXfXfXfXfXfXfXfXfXfXfXfXfXfXfXfXfXfXfXfXfXfXfXfXfXfXfXfXfXfXfXfXfXfXfXfXfXfXfXfXfXfXfXfXfXfXfXfXfXfX",
"fXfXfXfXfXfXfXfXfXfXfXfXfXfXfXfXfXfXfXfXfXfXfXfXfXfXfXfXfXfXfXfXfXfXfXfXfXfXfXfXfXfXfXfXfXfXfXfXfXfXfXfXfXfXfXfXfXfXfXfX",
"fXfXfXfXfXfXfXfXfXfXfXfXfXfXfXfXfXfXfXfXfXfXfXfXfXfXfXfXfXfXfXfXfXfXfXfXfXfX- fXfXfXfXfXfXfXfXfXfXfXfXfXfXfXfXfXfXfXfXfX",
"fXfXfXfXfXfXfXfXfXfXfXfXfXfXfXfXfXfXfXfXfXfXfXfXfXfXfXfXfXfXfXfXfXfXfXfX, - 3 4 7 fXfXfXfXfXfXfXfXfXfXfXfXfXfXfXfXfXfXfX",
"fXfXfXfXfXfXfXfXfXfXfXfXfXfXfXfXfXfXfXfXfXfXfXfXfXfXfXfXfXfXfXfXfXfXfXfXj j N e 0 fXfXfXfXfXfXfXfXfXfXfXfXfXfXfXfXfXfXfX",
"fXfXfXfXfXfXfXfXfXfXfXfXfXfXfXfXfXfXfXfXfXfXfXfXfXfXfXfXfXfXfXfXfXfX> a d g h 7 1 fXfXfXfXfX* & # # & i fXfXfXfXfXfXfXfX",
"fXfXfXfXfXfXfXfXfXfXfXfXfXfXfXfXfXfXfXfXfXfXfXfXfXfXfXfXfXfXfXfXfX2 i ' K.L.D.r $ fXfXfXfXb b V C V V e 3 fXfXfXfXfXfXfX",
"fXfXfXfXfXfXfXfXfXfXfXfXfXfXfXfXfXfXfXfXfXfXfXfXfXfXfXfXfXfXfXfX6 s k E.>X4XoXu   fXfXfX8 N K p.c.l.u.y & fXfXfXfXfXfXfX",
"fXfXfXfXfXfXfXfXfXfXfXfXfXfXfXfXfXfXfXfXfXfXfXfXfXfXfXfXfXfXfX> i d $.=XuXpX3X!   fXfX* 7 H :.j.A.Y.G.b $ fXfXfXfXfXfXfX",
"fXfXfXfXfXfXfXfXfXfXfXfXfXfXfXfXfXfXfXfXfXfXfXfXfXfXfXfXfXfXfX* r f =.-XaXaX2XE   fXfX: - N K y.c.x.p.8 fXfXfXfXfXfXfXfX",
"fXfXfXfXfXfXfXe 4 o     fXfXfXfXfXfXfXfXfXfXfXfXfXfXfXfXfXfXfX* 8 d $.-XsXaX1XT   X # # & * 5 M L L P fXfXfXfXfXfXfXfXfX",
"fXfXfXfXfXfXfX2 e _  .) fXfXfXfXfXfXfXfXfXfXfXfXfXfXfXfXfXfXfX> e h =.=XwXuX&XU p H U L L P P F < # fXfXfXfXfXfXfXfXfXfX",
"fXfXfXfXfXfXfX  R P.}.].~         X : fXfXfXfXfXfXfXfXfXfXfXfX: e z -.L..X-X(.G.j.J.N.J.c.x.c.p.F $ fXfXfXfXfXfXfXfXfXfX",
"fXfXfXfXfXfXfX  y {.%X@Xo.7 e ! ! B 7 fXfXfXfXfXfXfXfXfXfXfXfX> 8 J e.9.-.1.M.S.R.S.S.T.T.Q.R.x.i.& fXfXfXfXfXfXfXfXfXfX",
"fXfXfXfXfXfXfX  R {.%X2X3X3X3X3X#XI.-.x fXfXfXfXfXfXfXfXfXfXfX& 9 L y.;.=.&.v.R.U.c.l.z.N.B.B.c.y.Z N fXfXfXfXfXfXfXfXfX",
"fXfXfXfXfXfXfX  y [.$X8XtXpXaXaXwX-Xb.%.# fXfXfXfXfXfXfXfXfXfX: 3 H r.s.e.s.B.S.J.L b K t.s.t.t.s.r.S 7 * fXfXfXfXfXfXfX",
"fXfXfXfXfXfXfXfXu @.{.2XtXaXaXuXeX_.m.g.I V fXfXfXfXfXfXfXfXfXv x 0.,.1.*.1.M.Z.k.K x ;.4.4.4.4.;.%.k o O fXfXfXfXfXfXfX",
"fXfXfXfXfXfXfXfXfX~ ) +X2X7X4X-X(.W.Z.A.x.u.3 fXfXfXfXfXfX> m z %.*.*.*.#.#.3.m.v.5.3.5.b.v.v.2.f         o u fXfXfXfXfX",
"fXfXfXfXfXfXfXfXfXfX   .|.@XP.&.2.C.R.Q.R.x.U 3 fXfXfXfXfX& F F.G.G.G.H.K.I.!.^.).~.).~.~.).).!.P.{ |  .) ! 5 fXfXfXfXfX",
"fXfXfXfXfXfXfXfXfXfXfX~ o.P.' &.2.Z.R.Q.R.Y.J.u.L fXfXfXfX. ) E..X.XXX#X>X9X9XqXqXqX0X0X0X0X0X9X2X2X6X6X$Xo.  fXfXfXfXfX",
"fXfXfXfXfXfXfXfXfXfXfXfX1 G U y.j.V.R.R.T.R.T.x.I & fXfXfX  ) |.%X&X$X5XtXaXaXaXaXaXaXsXaXaXaXaXaXaXaXaX7X'.  fXfXfXfXfX",
"fXfXfXfXfXfXfXfXfXfXfXfX  + z >.j.z.C.Y.R.Q.Q.U.i.: $ fX.   ( '.+X+X|.%XrXpXdXdXpXaXaXaXaXaXaXaXtXrXtXyX%XO.  fXfXfXfXfX",
"fXfXfXfXfXfXfXfXfXfXfXfX& n q.s.8.s.j.C.R.Q.Q.C.I # # & & & w / _ ( Q [.&X6X5X2XrXaXaXaXaXaXaXiX$Xo.O.'.o.fXfXfXfXfXfXfX",
"fXfXfXfXfXfXfXfXfXfXfXfX* b H w.>.:.s.z.V.Y.V.l.I b n V V V m a + + + ) ].@X+X}.%XrXtXtXyXiXiX6XO.        fXfXfXfXfXfXfX",
"fXfXfXfXfXfXfXfXfXfXfXfXfXfXM Y q.>.8.j.f.h.u.I q.0.0.0.0.q.0.c l l l U  .} } } +. X{.{.{.@X@X}...fXfXfXfXfXfXfXfXfXfXfX",
"fXfXfXfXfXfXfXfXfXfXfXfXfXfX: < Z w.s.7.r.S 4 M w.s.s.t.t.t.s.s.s.7.s.w.A 2 2 6 6 4 7 e e 2 o   fXfXfXfXfXfXfXfXfXfXfXfX",
"fXfXfXfXfXfXfXfXfXfXfXfXfXfXfX: M H q.K S A A H :.7.s.7.t.>.s.f.z.N.N.f.s.<.&.*.P.oX$X%X*X]..   fXfXfXfXfXfXfXfXfXfXfXfX",
"fXfXfXfXfXfXfXfXfXfXfXfXfXfXfXfXfXb B r n S e.r.t.t.t.t.r.:.s.z.A.T.A.A.Y.A.v.n.;XuXaXaXsX2X .  fXfXfXfXfXfXfXfXfXfXfXfX",
"fXfXfXfXfXfXfXfXfXfXfXfXfXfXfXfXfX* & : - H >.8.7.t.t.t.s.d.z.A.R.R.R.S.Z.T.T.~.<XuXaXpXyX%X .  fXfXfXfXfXfXfXfXfXfXfXfX",
"fXfXfXfXfXfXfXfXfXfXfXfXfXfXfXfXfXfXfX& e H r.7.7.7.>.7.f.C.T.R.R.R.R.B.6.J.=X-X4X8X5X&X].X.!   fXfXfXfXfXfXfXfXfXfXfXfX",
"fXfXfXfXfXfXfXfXfXfXfXfXfXfXfXfXfXfXfX> 7 H r.s.r.e.:.e.h.C.Y.U.V.R.R.B.1.F.{.*X&X$X}. .    4 e fXfXfXfXfXfXfXfXfXfXfXfX",
"fXfXfXfXfXfXfXfXfXfXfXfXfXfXfXfXfXfXfX> 8 J t.t.0.Z A S q.p.h.p.p.N.R.C.,.P @.[.[.`.@.U f p 8 < fXfXfXfXfXfXfXfXfXfXfXfX",
"fXfXfXfXfXfXfXfXfXfXfXfXfXfXfXfXfXfXfX* 8 J >.e.A 9 3 8 r 8 7 : B h.T.C.a.* , y R w F w.t.0.n * fXfXfXfXfXfXfXfXfXfXfXfX",
"fXfXfXfXfXfXfXfXfXfXfXfXfXfXfXfXfXfXfX= 7 L q.J n > * 1 > & # % > I J.G.P #         @ J u.I u * fXfXfXfXfXfXfXfXfXfXfXfX",
"fXfXfXfXfXfXfXfXfXfXfXfXfXfXfXfXfXfXfX3 7 B G V u 0 e y t 0 9 - e ` ' ` G 3 fXfXfX; G ^ ` ^ u 2 fXfXfXfXfXfXfXfXfXfXfXfX",
"fXfXfXfXfXfXfXfXfXfXfXfXfXfXfXfXfXfXfXi e q w w 0 7 e y u 7 4 4 i R E E t i fXfXfX4 e Q / W e 4 fXfXfXfXfXfXfXfXfXfXfXfX",
"fXfXfXfXfXfXfXfXfXfXfXfXfXfXfXfXfXfXfX4 e t e 0 fXfX7 t e fXfXfXfXw w Q t 4 fXfXfXfXe t W W e 4 fXfXfXfXfXfXfXfXfXfXfXfX",
"fXfXfXfXfXfXfXfXfXfXfXfXfXfXfXfXfXfXfX4 4 e 7 i fXfXi i 7 fXfXfXfXfXi 7 e 4 fXfXfXfXfX4 4 7 i i fXfXfXfXfXfXfXfXfXfXfXfX",
"fXfXfXfXfXfXfXfXfXfXfXfXfXfXfXfXfXfXfXfXi i 4 fXfXfXfX4 fXfXfXfXfXfXfX4 i fXfXfXfXfXfXfX5 4 i fXfXfXfXfXfXfXfXfXfXfXfXfX",
"fXfXfXfXfXfXfXfXfXfXfXfXfXfXfXfXfXfXfXfXfXfXfXfXfXfXfXfXfXfXfXfXfXfXfXfXfXfXfXfXfXfXfXfXfXfXfXfXfXfXfXfXfXfXfXfXfXfXfXfX",
"fXfXfXfXfXfXfXfXfXfXfXfXfXfXfXfXfXfXfXfXfXfXfXfXfXfXfXfXfXfXfXfXfXfXfXfXfXfXfXfXfXfXfXfXfXfXfXfXfXfXfXfXfXfXfXfXfXfXfXfX",
"fXfXfXfXfXfXfXfXfXfXfXfXfXfXfXfXfXfXfXfXfXfXfXfXfXfXfXfXfXfXfXfXfXfXfXfXfXfXfXfXfXfXfXfXfXfXfXfXfXfXfXfXfXfXfXfXfXfXfXfX",
"fXfXfXfXfXfXfXfXfXfXfXfXfXfXfXfXfXfXfXfXfXfXfXfXfXfXfXfXfXfXfXfXfXfXfXfXfXfXfXfXfXfXfXfXfXfXfXfXfXfXfXfXfXfXfXfXfXfXfXfX",
"fXfXfXfXfXfXfXfXfXfXfXfXfXfXfXfXfXfXfXfXfXfXfXfXfXfXfXfXfXfXfXfXfXfXfXfXfXfXfXfXfXfXfXfXfXfXfXfXfXfXfXfXfXfXfXfXfXfXfXfX",
"fXfXfXfXfXfXfXfXfXfXfXfXfXfXfXfXfXfXfXfXfXfXfXfXfXfXfXfXfXfXfXfXfXfXfXfXfXfXfXfXfXfXfXfXfXfXfXfXfXfXfXfXfXfXfXfXfXfXfXfX",
"fXfXfXfXfXfXfXfXfXfXfXfXfXfXfXfXfXfXfXfXfXfXfXfXfXfXfXfXfXfXfXfXfXfXfXfXfXfXfXfXfXfXfXfXfXfXfXfXfXfXfXfXfXfXfXfXfXfXfXfX",
"fXfXfXfXfXfXfXfXfXfXfXfXfXfXfXfXfXfXfXfXfXfXfXfXfXfXfXfXfXfXfXfXfXfXfXfXfXfXfXfXfXfXfXfXfXfXfXfXfXfXfXfXfXfXfXfXfXfXfXfX",
"fXfXfXfXfXfXfXfXfXfXfXfXfXfXfXfXfXfXfXfXfXfXfXfXfXfXfXfXfXfXfXfXfXfXfXfXfXfXfXfXfXfXfXfXfXfXfXfXfXfXfXfXfXfXfXfXfXfXfXfX",
"fXfXfXfXfXfXfXfXfXfXfXfXfXfXfXfXfXfXfXfXfXfXfXfXfXfXfXfXfXfXfXfXfXfXfXfXfXfXfXfXfXfXfXfXfXfXfXfXfXfXfXfXfXfXfXfXfXfXfXfX",
"fXfXfXfXfXfXfXfXfXfXfXfXfXfXfXfXfXfXfXfXfXfXfXfXfXfXfXfXfXfXfXfXfXfXfXfXfXfXfXfXfXfXfXfXfXfXfXfXfXfXfXfXfXfXfXfXfXfXfXfX",
"fXfXfXfXfXfXfXfXfXfXfXfXfXfXfXfXfXfXfXfXfXfXfXfXfXfXfXfXfXfXfXfXfXfXfXfXfXfXfXfXfXfXfXfXfXfXfXfXfXfXfXfXfXfXfXfXfXfXfXfX",
"fXfXfXfXfXfXfXfXfXfXfXfXfXfXfXfXfXfXfXfXfXfXfXfXfXfXfXfXfXfXfXfXfXfXfXfXfXfXfXfXfXfXfXfXfXfXfXfXfXfXfXfXfXfXfXfXfXfXfXfX",
"fXfXfXfXfXfXfXfXfXfXfXfXfXfXfXfXfXfXfXfXfXfXfXfXfXfXfXfXfXfXfXfXfXfXfXfXfXfXfXfXfXfXfXfXfXfXfXfXfXfXfXfXfXfXfXfXfXfXfXfX"
};
