/* XPM */
static char *result[] = {
/* columns rows colors chars-per-pixel */
"60 60 209 2 ",
"   c #000000",
".  c #0F0F0B",
"X  c #1A0000",
"o  c #001316",
"O  c #171816",
"+  c #000E1C",
"@  c #340000",
"#  c #380000",
"$  c #371806",
"%  c #00082C",
"&  c #00162B",
"*  c #001D2C",
"=  c #00242C",
"-  c #00292F",
";  c #0D2A2E",
":  c #142B2E",
">  c #1C2B2E",
",  c #002730",
"<  c #002A31",
"1  c #0E2E32",
"2  c #06333A",
"3  c #1E3033",
"4  c #242523",
"5  c #222D2E",
"6  c #2C2D2C",
"7  c #322E2D",
"8  c #3B2E2A",
"9  c #2F302F",
"0  c #34312F",
"q  c #3B322F",
"w  c #2D3232",
"e  c #253638",
"r  c #333333",
"t  c #3D3430",
"y  c #3B3C3B",
"u  c #373A3A",
"i  c #282F30",
"p  c #4A1800",
"a  c #5A0100",
"s  c #6A0000",
"d  c #7F0000",
"f  c #720000",
"g  c #6A1400",
"h  c #582909",
"j  c #512B16",
"k  c #672B02",
"l  c #722E00",
"z  c #793700",
"x  c #7F3E13",
"c  c #452E26",
"v  c #42312B",
"b  c #4E362C",
"n  c #54372A",
"m  c #5B392A",
"M  c #593627",
"N  c #443732",
"B  c #543C33",
"V  c #593C31",
"C  c #643C2B",
"Z  c #6A3D28",
"A  c #733F25",
"S  c #603E31",
"D  c #40403F",
"F  c #574239",
"G  c #7D4224",
"H  c #74422B",
"J  c #7A452C",
"K  c #79452A",
"L  c #634335",
"P  c #6B4433",
"I  c #69493D",
"U  c #734936",
"Y  c #764A36",
"T  c #744935",
"R  c #003D46",
"E  c #3C4749",
"W  c #244247",
"Q  c #454544",
"!  c #494948",
"~  c #555859",
"^  c #534F4D",
"/  c #7A5241",
"(  c #6B5D59",
")  c #78615A",
"_  c #5A686B",
"`  c #616161",
"'  c #6F6F71",
"]  c #67777A",
"[  c #7A7979",
"{  c #890000",
"}  c #8D1500",
"|  c #952600",
" . c #973A00",
".. c #873200",
"X. c #A83200",
"o. c #884108",
"O. c #954300",
"+. c #994300",
"@. c #984907",
"#. c #8D471D",
"$. c #9B4E1D",
"%. c #954A18",
"&. c #9F501D",
"*. c #AC4200",
"=. c #A24B03",
"-. c #B34C00",
";. c #B75403",
":. c #A04E12",
">. c #A2511E",
",. c #A8541E",
"<. c #B45B1A",
"1. c #854624",
"2. c #8C4924",
"3. c #85492B",
"4. c #8C4D2B",
"5. c #944D23",
"6. c #9B4F21",
"7. c #9E5021",
"8. c #95522C",
"9. c #8C5335",
"0. c #85533A",
"q. c #935535",
"w. c #9C5C3A",
"e. c #965837",
"r. c #854E33",
"t. c #A25323",
"y. c #A2562A",
"u. c #AD5C2A",
"i. c #A95928",
"p. c #A25E3B",
"a. c #A75E39",
"s. c #B05C28",
"d. c #B4612D",
"f. c #A5613C",
"g. c #AC643B",
"h. c #BD6C3D",
"j. c #B5683C",
"k. c #CE6300",
"l. c #C96B2B",
"z. c #D4722F",
"x. c #C26B35",
"c. c #C76F39",
"v. c #CB733D",
"b. c #C8713B",
"n. c #D3763C",
"m. c #D77637",
"M. c #8A5B47",
"N. c #91614B",
"B. c #A6664B",
"V. c #AB725D",
"C. c #B16F50",
"Z. c #866C63",
"A. c #817D7C",
"S. c #B37862",
"D. c #A77967",
"F. c #C67242",
"G. c #CF7541",
"H. c #D27741",
"J. c #D57941",
"K. c #DC7C42",
"L. c #E07E43",
"P. c #84807E",
"I. c #AA8477",
"U. c #B48B7E",
"Y. c #E58245",
"T. c #747D80",
"R. c #798487",
"E. c #838484",
"W. c #8C8B8B",
"Q. c #868889",
"!. c #969392",
"~. c #948F8D",
"^. c #B79B93",
"/. c #B39085",
"(. c #A4A3A3",
"). c #A4AAAB",
"_. c #ACADAD",
"`. c #B5ACAA",
"'. c #B3B3B3",
"]. c #B9BAB9",
"[. c #ADB3B4",
"{. c #C8A99F",
"}. c #CAACA4",
"|. c #C9B3AC",
" X c #C5BCB9",
".X c #D7B6AB",
"XX c #ECBAA7",
"oX c #EBBAA9",
"OX c #E4B9AA",
"+X c #DBC5BF",
"@X c #C5C5C5",
"#X c #CACACB",
"$X c #C7C8C8",
"%X c #DBC8C3",
"&X c #DBDCDD",
"*X c #D6D4D3",
"=X c #EDDDD9",
"-X c #E4D1CC",
";X c #DCDFE0",
":X c #DEE1E1",
">X c #E4E5E5",
",X c #E7EAEB",
"<X c #F9EFEC",
"1X c #F3ECEA",
"2X c #F8F1EE",
"3X c #F5F4F3",
"4X c #FDF4F2",
"5X c #FEFEFE",
"6X c None",
/* pixels */
"6X6X6X6X6X6X6X6X6X6X6X6X6X6X6X6X6X6X6X6X6X6X6X6X6X6X6X6X6X6X6X6X6X6X6X6X6X6X6X6X6X6X6X6X6X6X6X6X6X6X6X6X6X6X6X6X6X6X6X6X",
"6X6X6X6X6X6X6X6X6X6X6X6X6X6X6X6X6X6X6X6X6X6X6X6X6X6X6X6X6X6X6X6X6X6X6X6X6X6X6X6X6X6X6X6X6X6X6X6X6X6X6X6X6X6X6X6X6X6X6X6X",
"6X6X6X6X6X6X6X6X6X6X6X6X6X6X6X6X6X6X6X6X6X6X6X6X6X6X6X6X6X6X6X6X6X6X6X6X6X6X6X6X6X6X6X6X6X6X6X6X6X6X6X6X6X6X6X6X6X6X6X6X",
"6X6X6X6X6X6X6X6X6X6X6X6X6X6X6X6X6X6X6X6X6X6X6X6X6X6X6X6X6X6X6X6X6X6X6X6X6X6X6X6X6X6X6X6X6X6X6X6X6X6X6X6X6X6X6X6X6X6X6X6X",
"6X6X6X6X6X6X6X6X6X6X6X6X6X6X6X6X6X6X6X6X6X6X6X6X6X6X6X6X6X6X6X6X6X6X6X6X6X6X6X6X6X6X6X6X6X6X6X6X6X6X6X6X6X6X6X6X6X6X6X6X",
"6X6X6X6X6X6X6X6X6X6X6X6X6X6X6X6X6X6X6X6X6X6X6X6X6X6X6X6X6X6X6X6X6X6X6X6X6X6X6X6X6X6X6X6X6X6X6X6X6X6X6X6X6X6X6X6X6X6X6X6X",
"6X6X6X6X6X6X6X6X6X6X6X6X6X6X6X6X6X6X6X6X6X6X6X6X6X6X6X6X6X6X6X6X6X6X6X6X6X6X6X6X6X6X6X6X6X6X6X6X6X6X6X6X6X6X6X6X6X6X6X6X",
"6X6X6X6X6X6X6X6X6X6X6X6X6X6X6X6X6X6X6X6X6X6X6X6X6X6X6X6X6X6X6X6X6X6X6X6X6X6X6X6X6X6X6X6X6X6X6X6X6X6X6X6X6X6X6X6X6X6X6X6X",
"6X6X6X6X6X6X6X6X6X6X6X6X6X6X6X6X6X6X6X6X6X6X6X6X6X6X6X6X6X6X6X6X6X6X6X6X6X6X6X6X6X6X6X6X6X6X6X6X6X6X6X6X6X6X6X6X6X6X6X6X",
"6X6X6X6X6X6X6X6X6X6X6X6X6X6X6X6X6X6X6X6X6X6X6X6X6X6X6X6X6X6X6X6X6X6X6X6X6X6X6X6X6X6X6X6X6X6X6X6X6X6X6X6X6X6X6X6X6X6X6X6X",
"6X6X6X6X6X6X6X6X6X6X6X6X6X6X6X6X6X6X6X6X6X6X6X6X6X6X6X6X6X6X6X6X6X6X6X6X6X6X6X6X6X6X6X6X6X6X6X6X6X6X6X6X6X6X6X6X6X6X6X6X",
"6X6X6X6X6X6X6X6X6X6X6X6X6X6X6X6X6X6X6X6X6X6X6X6X6X6X6X6X6X6X6X6X6X6X6X6X6X6X6X6X6X6X6X6X6X6X6X6X6X6X6X6X6X6X6X6X6X6X6X6X",
"6X6X6X6X6X6X6X6X6X6X6X6X6X6X6X6X6X6X6X6X6X6X6X6X6X6X6X6X6X6X6X6X6X6X6X6X6X6X6X< : 6 7 6X6X6X6X6X6X6X6X6X6X6X6X6X6X6X6X6X",
"6X6X6X6X6X6X6X6X6X6X6X6X6X6X6X6X6X6X6X6X6X6X6X6X6X6X6X6X6X6X6X6X6X6X6X6X6X6Xv N N u 9 6X6X6X6X6X6X6X6X6X6X6X6X6X6X6X6X6X",
"6X6X6X6X6X6X6X6X6X6X6X6X6X6X6X6X6X6X6X6X6X6X6X6X6X6X6X6X6X6X6X6X6X6X6X6X6X4 a s g c i 6X6X6X6X6X6X, * & = 5 6X6X6X6X6X6X",
"6X6X6X6X6X6X6X6X6X6X6X6X6X6X6X6X6X6X6X6X6X6X6X6X6X6X6X6X6X6X6X6X6X6X6X6X< t ..O.o.V < 6X6X6X6X6Xi i 5 > 5 9 9 6X6X6X6X6X",
"6X6X6X6X6X6X6X6X6X6X6X6X6X6X6X6X6X6X6X6X6X6X6X6X6X6X6X6X6X6X6X6X6X6X6Xc p / /.}.^.(   6X6X6X6Xb C J q.e.0.F : 6X6X6X6X6X",
"6X6X6X6X6X6X6X6X6X6X6X6X6X6X6X6X6X6X6X6X6X6X6X6X6X6X6X6X6X6X6X6X6X6X> h f V.%X1X*X[   6X6X6X: n G y.x.G.C.U = 6X6X6X6X6X",
"6X6X6X6X6X6X6X6X6X6X6X6X6X6X6X6X6X6X6X6X6X6X6X6X6X6X6X6X6X6X6X6X6X6X: k { S.=X5X,XE.  6X6X, 1 m G y.x.v.j.P & 6X6X6X6X6X",
"6X6X6X6X6X6X6X6X6X6X6X6X6X6X6X6X6X6X6X6X6X6X6X6X6X6X6X6X6X6X6X6X6X6X: h d S.=X5X:XR.    & * * : 8 C r.q.9.6X6X6X6X6X6X6X",
"6X6X6X6X6X6X6X6X6X6X6X6X6X6X6X6X6X6X6X6X6X6X6X6X6X6X6X6X6X6X6X6X6X6X: h { V.-X5X:XR.  X t q q q q 0 w > > 6X6X6X6X6X6X6X",
"6X6X6X6X6X6X6X6X6X6X6X6X6X6X6X6X6X6X6X6X6X6X6X6X6X6X6X6X6X6X6X6X6X6X: C ..B.{.%X|.D.@.y.f.f.p.w.p.q.L = % 6X6X6X6X6X6X6X",
"6X6X6X6X6X6X6X6X6X6X6X6X6X6X6X6X6X6X6X6X6X6X6X6X6X6X6X6X6X6X6X6X6X6X: C #.8.B.V.C.F.J.H.J.H.G.H.J.v.w.w % 6X6X6X6X6X6X6X",
"6X6X6X6X6X6X6X6X6X6X6X6X6X6X6X6X6X6X6X6X6X6X6X6X6X6X6X6X6X6X6X6X6X6X- L 4.:.| { -.m.L.G.c.b.v.n.n.b.a.C 8 6X6X6X6X6X6X6X",
"6X6X6X6X6X6X6X6X6X6X6X6X6X6X6X6X6X6X6X6X6X6X6X6X6X6X6X6X6X6X6X6X6X6X< V 2.$.+.+.<.n.v.w.P 3.i.s.s.u.7.8.K b - 6X6X6X6X6X",
"6X6X6X6X6X6X6X6X6X6X6X6X6X6X6X6X6X6X6X6X6X6X6X6X6X6X6X6X6X6X6X6X6X6 8 P 2.>.%.$.d.n.v.9.8 Z $.,.>.>.$.$.1.B - 6X6X6X6X6X",
"6X6X6X6X6X6X6X6X6X6X6X6X6X6X6X6X6X6X6X6X6X6X6X6X6X6X6X6X6X6X6X6X8 h l .. .=.| | -.k.k.;. .=.-.;.;.-.| s @       0 6X6X6X",
"6X6X6X6X6X6X6X6X6X6X6X6X6X6X6X6X6X6X6X6X6X6X6X6X6X6X6X6X6X6X6X< 0 H %.=.@.@.O.+.;.l.m.z.z.z.z.z.z.z.6.$     O 6 0 r 6X6X",
"6X6X6X6X6X6X6X6X6X6X6X6X6X6X6X6X6X6X6X6X6X6X6X6X6X6X6X6X6X6X6X+ r Z.I.U.I./.^.}..XOXoXoXXXXXoXoXXXOX|._.).[.(.[ 6   6X6X",
"6X6X6X6X6X6X6X6X6X6X6X6X6X6X6X6X6X* * * * * * = 5 6 5 - < - =   e E.`.].`.].&X1X4X4X4X4X<X<X<X<X<X<X3X3X5X5X>X).O   6X6X",
"6X6X6X6X6X6X6X6X6X6X6X6X6X6X6X6X6XP Y U I U U L N w N B B B n p F P.).[.).'.:X5X5X5X5X5X5X5X5X5X5X5X5X3X4X5X>X(.  6X6X6X",
"6X6X6X6X6X6X6X6X6X6X6X6X6X    = Y f.x.C.j.h.b.f.L < m 3.2.3.3...J ( ] T._ R.].&X:X&X>X5X5X5X5X5X5X5X&X_.).'.(.E.6X6X6X6X",
"6X6X6X6X6X6X6X6X6X6X6X6XQ ! 2 9 q.b.L.K.n.L.m.c.U 7 A 7.>.7.7.t.7.1.c o   ! ~.'.'.`.@X:X5X5X5X5X5X3X'.r     . 6X6X6X6X6X",
"6X6X6X6X6X6X6X6X6X6X6X' _.].!.Y =.n.Y.Y.L.H.j.e.J H 2.7.,.t.>.7.>.%.%.O.O.q.Z.R.R.[ !.[.$X#X@X$X#X].R.        6X6X6X6X6X",
"6X6X6X6X6X6X6X        Q.:X3X Xp.X.v.L.L.K.g.P n 1.6.7.7.7.7.>.%.$.d.c.n.n.F.N.E R W E ~ ` ` ` ` ` ~ ! 6 4 0 6 6X6X6X6X6X",
"6X6X6X6X6X6X6X` [ E.~.#X5X5X%Xa.X.l.v.F.j.0.1 8 2.,.t.7.6.$.t.t.d.c.K.Y.Y.n.s.z k z k @         X # $ y y r 6 6X6X6X6X6X",
"6X6X6X6X6X  ~ W.'.*X>X5X5X5X%Xa.| <.s.8.Y F e V 5.t.,.t.>.$.i.x.n.K.K.L.Y.K.n.x.x.c.j.0.u , o p ..o.Y ^ E u 6 6X6X6X6X6X",
"6X6X6X6X6X  ~ !.].;X3X5X5X1X|.w.} @.1.M - < e F 3.6.6.5.6.#.y.h.H.G.G.G.v.G.H.H.n.J.F.N.! R 3 m #.8.Y ^ E r 6 6X6X6X6X6X",
"6X6X6X6X6XO ^ [ !._.@X#X$X'.~.Y l A C q < < w B P K K H H H r.e.f.f.w.w.w.w.f.g.g.g.w./ E e w b H J I Q u r 6X6X6X6X6X6X",
"6X6X6X6X6X7 u u y D Q Q Q Q N 8 7 q 0 0 9 r 7 r q 8 r 8 r 8 7 t t t t N N t t q q N q 0 r 9 w r 0 r t r w 6X6X6X6X6X6X6X",
"6X6X6X6X6Xr 4                 = 2 < - 5 6 7 7 5 - < , < < < < * & & & & & & & & & & * = 6 7 7 5 < - : 6 6X6X6X6X6X6X6X6X",
"6X6X6X6X6X6X6X6X6X6X6X6X6X6X6X6X6X6X6X6X6X6X6X6X6X6X6X6X6X6X6X6X6X6X6X6X6X6X6X6X6X6X6X6X6X6X6X6X6X6X6X6X6X6X6X6X6X6X6X6X",
"6X6X6X6X6X6X6X6X6X6X6X6X6X6X6X6X6X6X6X6X6X6X6X6X6X6X6X6X6X6X6X6X6X6X6X6X6X6X6X6X6X6X6X6X6X6X6X6X6X6X6X6X6X6X6X6X6X6X6X6X",
"6X6X6X6X6X6X6X6X6X6X6X6X6X6X6X6X6X6X6X6X6X6X6X6X6X6X6X6X6X6X6X6X6X6X6X6X6X6X6X6X6X6X6X6X6X6X6X6X6X6X6X6X6X6X6X6X6X6X6X6X",
"6X6X6X6X6X6X6X6X6X6X6X6X6X6X6X6X6X6X6X6X6X6X6X6X6X6X6X6X6X6X6X6X6X6X6X6X6X6X6X6X6X6X6X6X6X6X6X6X6X6X6X6X6X6X6X6X6X6X6X6X",
"6X6X6X6X6X6X6X6X6X6X6X6X6X6X6X6X6X6X6X6X6X6X6X6X6X6X6X6X6X6X6X6X6X6X6X6X6X6X6X6X6X6X6X6X6X6X6X6X6X6X6X6X6X6X6X6X6X6X6X6X",
"6X6X6X6X6X6X6X6X6X6X6X6X6X6X6X6X6X6X6X6X6X6X6X6X6X6X6X6X6X6X6X6X6X6X6X6X6X6X6X6X6X6X6X6X6X6X6X6X6X6X6X6X6X6X6X6X6X6X6X6X",
"6X6X6X6X6X6X6X6X6X6X6X6X6X6X6X6X6X6X6X6X6X6X6X6X6X6X6X6X6X6X6X6X6X6X6X6X6X6X6X6X6X6X6X6X6X6X6X6X6X6X6X6X6X6X6X6X6X6X6X6X",
"6X6X6X6X6X6X6X6X6X6X6X6X6X6X6X6X6X6X6X6X6X6X6X6X6X6X6X6X6X6X6X6X6X6X6X6X6X6X6X6X6X6X6X6X6X6X6X6X6X6X6X6X6X6X6X6X6X6X6X6X",
"6X6X6X6X6X6X6X6X6X6X6X6X6X6X6X6X6X6X6X6X6X6X6X6X6X6X6X6X6X6X6X6X6X6X6X6X6X6X6X6X6X6X6X6X6X6X6X6X6X6X6X6X6X6X6X6X6X6X6X6X",
"6X6X6X6X6X6X6X6X6X6X6X6X6X6X6X6X6X6X6X6X6X6X6X6X6X6X6X6X6X6X6X6X6X6X6X6X6X6X6X6X6X6X6X6X6X6X6X6X6X6X6X6X6X6X6X6X6X6X6X6X",
"6X6X6X6X6X6X6X6X6X6X6X6X6X6X6X6X6X6X6X6X6X6X6X6X6X6X6X6X6X6X6X6X6X6X6X6X6X6X6X6X6X6X6X6X6X6X6X6X6X6X6X6X6X6X6X6X6X6X6X6X",
"6X6X6X6X6X6X6X6X6X6X6X6X6X6X6X6X6X6X6X6X6X6X6X6X6X6X6X6X6X6X6X6X6X6X6X6X6X6X6X6X6X6X6X6X6X6X6X6X6X6X6X6X6X6X6X6X6X6X6X6X",
"6X6X6X6X6X6X6X6X6X6X6X6X6X6X6X6X6X6X6X6X6X6X6X6X6X6X6X6X6X6X6X6X6X6X6X6X6X6X6X6X6X6X6X6X6X6X6X6X6X6X6X6X6X6X6X6X6X6X6X6X",
"6X6X6X6X6X6X6X6X6X6X6X6X6X6X6X6X6X6X6X6X6X6X6X6X6X6X6X6X6X6X6X6X6X6X6X6X6X6X6X6X6X6X6X6X6X6X6X6X6X6X6X6X6X6X6X6X6X6X6X6X",
"6X6X6X6X6X6X6X6X6X6X6X6X6X6X6X6X6X6X6X6X6X6X6X6X6X6X6X6X6X6X6X6X6X6X6X6X6X6X6X6X6X6X6X6X6X6X6X6X6X6X6X6X6X6X6X6X6X6X6X6X",
"6X6X6X6X6X6X6X6X6X6X6X6X6X6X6X6X6X6X6X6X6X6X6X6X6X6X6X6X6X6X6X6X6X6X6X6X6X6X6X6X6X6X6X6X6X6X6X6X6X6X6X6X6X6X6X6X6X6X6X6X",
"6X6X6X6X6X6X6X6X6X6X6X6X6X6X6X6X6X6X6X6X6X6X6X6X6X6X6X6X6X6X6X6X6X6X6X6X6X6X6X6X6X6X6X6X6X6X6X6X6X6X6X6X6X6X6X6X6X6X6X6X",
"6X6X6X6X6X6X6X6X6X6X6X6X6X6X6X6X6X6X6X6X6X6X6X6X6X6X6X6X6X6X6X6X6X6X6X6X6X6X6X6X6X6X6X6X6X6X6X6X6X6X6X6X6X6X6X6X6X6X6X6X",
"6X6X6X6X6X6X6X6X6X6X6X6X6X6X6X6X6X6X6X6X6X6X6X6X6X6X6X6X6X6X6X6X6X6X6X6X6X6X6X6X6X6X6X6X6X6X6X6X6X6X6X6X6X6X6X6X6X6X6X6X"
};
