/* XPM */
static char *result[] = {
/* columns rows colors chars-per-pixel */
"60 60 97 2 ",
"   c #002A15",
".  c #004D3D",
"X  c #16553B",
"o  c #1F573D",
"O  c #20573D",
"+  c #21573D",
"@  c #43681C",
"#  c #43663D",
"$  c #376051",
"%  c #44664F",
"&  c #4D6C4D",
"*  c #506D4F",
"=  c #5A744F",
"-  c #5C744F",
";  c #476851",
":  c #486851",
">  c #526F50",
",  c #536F50",
"<  c #60774E",
"1  c #61784E",
"2  c #62794F",
"3  c #697E4D",
"4  c #6C7F4E",
"5  c #7A8A4D",
"6  c #7F8E69",
"7  c #82923F",
"8  c #86953E",
"9  c #9FA93F",
"0  c #899742",
"q  c #899842",
"w  c #8C9A42",
"e  c #8E994A",
"r  c #919C49",
"t  c #929C49",
"y  c #929C4A",
"u  c #949E49",
"i  c #9EA648",
"p  c #A6AC46",
"a  c #A6AD46",
"s  c #A7AD46",
"d  c #ABB145",
"f  c #A9AB5D",
"g  c #B5B352",
"h  c #B7B556",
"j  c #B7B656",
"k  c #BAB854",
"l  c #B0B159",
"z  c #899361",
"x  c #89966F",
"c  c #909B6D",
"v  c #869472",
"b  c #8A9770",
"n  c #A1A97F",
"m  c #DAC56C",
"M  c #DCC974",
"N  c #DDCB79",
"B  c #E5CB75",
"V  c #E7CF7C",
"C  c #E7CF7D",
"Z  c #99A380",
"A  c #DECF81",
"S  c #DDCF86",
"D  c #EBD180",
"F  c #EBD280",
"G  c #E8D282",
"H  c #E9D487",
"J  c #E9D587",
"K  c #EAD587",
"L  c #EDD585",
"P  c #EDD586",
"I  c #EAD78A",
"U  c #EAD78B",
"Y  c #EBD78B",
"T  c #EBD88C",
"R  c #F0DB8F",
"E  c #ECDB91",
"W  c #F0DD93",
"Q  c #F4E49E",
"!  c #D4D6A3",
"~  c #E6E0A2",
"^  c #E2E0A6",
"/  c #E4E3AD",
"(  c #E4E4AD",
")  c #F3E9A8",
"_  c #F3EBAB",
"`  c #F4ECAD",
"'  c #FAF0AE",
"]  c #E4E5B0",
"[  c #E9E9B1",
"{  c #F6F1B4",
"}  c #FBF2B1",
"|  c #FCF3B1",
" . c #FCF4B3",
".. c #FFFAB7",
"X. c #F8F5BA",
"o. c #F8F5BB",
"O. c #F9F8BE",
/* pixels */
"X._ I V G G G G G G G G G G G G G G G G G G G G G G G G P N h q 1 : , , , , , , , , , , , , , , , , , , , , , , , , , , ",
"X._ I V G G G G G G G G G G G G G G G G G G G G G G G G P N h q 1 : , , , , , , , , , , , , , , , , , , , , , , , , , , ",
"X._ I V G G G G G G G G G G G G G G G G G G G G G G G G P N h q 1 : , , , , , , , , , , , , , , , , , , , , , , , , , , ",
"X._ I V G G G G G G G G G G G G G G G G G G G G G G G G P N h q 1 : , , , , , , , , , , , , , , , , , , , , , , , , , , ",
"X._ I V G G G G G G G G G G G G G G G G G G G G G G G G P N h q 1 : , , , , , , , , , , , , , , , , , , , , , , , , , , ",
"X._ I V G G G G G G G G G G G G G G G G G G G G G G G G P N h q 1 : , , , , , , , , , , , , , , , , , , , , , , , , , , ",
"X._ I V G G G G G G G G G G G G G G G G G G G G G G G G P N h q 1 : , , , , , , , , , , , , , , , , , , , , , , , , , , ",
"X._ I V G G G G G G G G G G G G G G G G G G G G G G G G P N h q 1 : , , , , , , , , , , , , , , , , , , , , , , , , , , ",
"X._ I V G G G G G G G G G G G G G G G G G G G G G G G G P N h q 1 : , , , , , , , , , , , , , , , , , , , , , , , , , , ",
"X._ I V G G G G G G G G G G G G G G G G G G G G G G G G P N h q 1 : , , , , , , , , , , , , , , , , , , , , , , , , , , ",
"X._ I V G G G G G G G G G G G G G G G G G G G G G G G G P N h q 1 : , , , , , , , , , , , , , , , , , , , , , , , , , , ",
"X._ I V G G G G G G G G G G G G G G G G G G G G G G G G P N h q 1 : , , , , , , , , , , , , , , , , , , , , , , , , , , ",
"X._ I V G G G G G G G G G G G G G G G G G G G G G G G G P N h q 1 : , , , , , , , , , , , , , , , , , , , , , , , , , , ",
"X._ I V G G G G G G G G G G G G G G G G G G G G G G G G P N h q 1 : , , , , , , , , , , , , , , , , , , , , , , , , , , ",
"X._ I V G G G G G G G G G G G G G G G G G G G G G G G G P N h q 1 : , , , , , , , , , , , , , , , , , , , , , , , , , , ",
"X._ I V G G G G G G G G G G G G G G G G G G G G G G G G P N h q 1 : , , , , , , , , , , , , , , , , , , , , , , , , , , ",
"X._ I V G G G G G G G G G G G G G G G G G G G G G G G G P N h q 1 : , , , , , , , , , , , , , , , , , , , , , , , , , , ",
"X._ I V G G G G G G G G G G G G G G G G G G G G G G G G P N h q 1 : , , , , , , , , , , , , , , , , , , , , , , , , , , ",
"X._ I V G G G G G G G G G G G G G G G G G G G G G G G G P N h q 1 : , , , , , , , , , , , , , , , , , , , , , , , , , , ",
"X._ I V G G G G G G G G G G G G G G G G G G G G G G G G P N h q 1 : , , , , , , , , , , , , , , , , , , , , , , , , , , ",
"X._ I V G G G G G G G G G G G G G G G G G G G G G G G G P N h q 1 : , , , , , , , , , , , , , , , , , , , , , , , , , , ",
"X._ I V G G G G G G G G G G G G G G G G G G G G G G G G P N h q 1 : , , , , , , , , , , , , , , , , , , , , , , , , , , ",
"X._ I V G G G G G G G G G G G G G G G G G G G G G G G G P N h q 1 : , , , , , , , , , , , , , , , , , , , , , , , , , , ",
"X._ I V G G G G G G G G G G G G G G G G G G G G G G G G P N h q 1 : , , , , , , , , , , , , , , , , , , , , , , , , , , ",
"X._ I V G G G G G G G G G G G G G G G G G G G G G G G G P N h q 1 : , , , , , , , , , , , , , , , , , , , , , , , , , , ",
"o._ I V G G G G G G G G G G G G G G G G G G G G G G G G L N j q 1 ; > , , , , , , , , , , , , , , , , , , , , , , , , , ",
"O.` J B V V V V V V V V V V V V V V V V V V V V V V V C F M k w = $ ; : : : : : : : : : : : : : : : : : : : : : : : : : ",
"{ ) E K Y Y Y Y Y Y Y Y Y Y Y Y Y Y Y Y Y Y Y Y Y Y Y T R A l 7 3 = 1 1 1 1 1 1 1 1 1 1 1 1 1 1 1 1 1 1 1 1 1 1 1 1 1 1 ",
"W Q '  .} } } } } } } } } } } } } } } } } } } } } } } | ..~ z @ 7 w q q q q q q 0 0 q q 0 0 q q q q q q q q q q 0 q q 0 ",
"m S ^ ] / / / / / / / / / / / / / / / / / / / / / / / ( [ ! Z z l k j j j j j j h h j j h h j j j j j j j j j j h j j h ",
"g f c v b b b b b b b b b b b b b b b b b b b b b b b x 6 n ! ~ A M N N N N N N N N N N N N N N N N N N N N N N N N N N ",
"9 8 # . o + O O O O + O O O O + O O O O + O O O O + O X   6 [ ..R D L P P P P P P P P P P P P P P P P P P P P P P P P P ",
"p r < % * * * * * * * * * * * * * * * * * * * * * * * & X x ( | T C G G G G G G G G G G G G G G G G G G G G G G G G G G ",
"a y 2 : , , , , , , , , , , , , , , , , , , , , , , , * O b / } Y V G G G G G G G G G G G G G G G G G G G G G G G G G G ",
"a y 2 : , , , , , , , , , , , , , , , , , , , , , , , * O b / } Y V G G G G G G G G G G G G G G G G G G G G G G G G G G ",
"a y 2 : , , , , , , , , , , , , , , , , , , , , , , , * O b / } Y V G G G G G G G G G G G G G G G G G G G G G G G G G G ",
"a y 2 : , , , , , , , , , , , , , , , , , , , , , , , * O b / } Y V G G G G G G G G G G G G G G G G G G G G G G G G G G ",
"a y 2 : , , , , , , , , , , , , , , , , , , , , , , , * O b / } Y V G G G G G G G G G G G G G G G G G G G G G G G G G G ",
"a y 2 : , , , , , , , , , , , , , , , , , , , , , , , * O b / } Y V G G G G G G G G G G G G G G G G G G G G G G G G G G ",
"a y 2 : , , , , , , , , , , , , , , , , , , , , , , , * O b / } Y V G G G G G G G G G G G G G G G G G G G G G G G G G G ",
"a y 2 : , , , , , , , , , , , , , , , , , , , , , , , * O b / } Y V G G G G G G G G G G G G G G G G G G G G G G G G G G ",
"a y 2 : , , , , , , , , , , , , , , , , , , , , , , , * O b / } Y V G G G G G G G G G G G G G G G G G G G G G G G G G G ",
"a y 2 : , , , , , , , , , , , , , , , , , , , , , , , * O b / } Y V G G G G G G G G G G G G G G G G G G G G G G G G G G ",
"a y 2 : , , , , , , , , , , , , , , , , , , , , , , , * O b / } Y V G G G G G G G G G G G G G G G G G G G G G G G G G G ",
"a y 2 : , , , , , , , , , , , , , , , , , , , , , , , * O b / } Y V G G G G G G G G G G G G G G G G G G G G G G G G G G ",
"a y 2 : , , , , , , , , , , , , , , , , , , , , , , , * O b / } Y V G G G G G G G G G G G G G G G G G G G G G G G G G G ",
"a y 2 : , , , , , , , , , , , , , , , , , , , , , , , * O b / } Y V G G G G G G G G G G G G G G G G G G G G G G G G G G ",
"a y 2 : , , , , , , , , , , , , , , , , , , , , , , , * O b / } Y V G G G G G G G G G G G G G G G G G G G G G G G G G G ",
"a y 2 : , , , , , , , , , , , , , , , , , , , , , , , * O b / } Y V G G G G G G G G G G G G G G G G G G G G G G G G G G ",
"a y 2 : , , , , , , , , , , , , , , , , , , , , , , , * O b / } Y V G G G G G G G G G G G G G G G G G G G G G G G G G G ",
"a y 2 : , , , , , , , , , , , , , , , , , , , , , , , * O b / } Y V G G G G G G G G G G G G G G G G G G G G G G G G G G ",
"a y 2 : , , , , , , , , , , , , , , , , , , , , , , , * O b / } Y V G G G G G G G G G G G G G G G G G G G G G G G G G G ",
"a y 2 : , , , , , , , , , , , , , , , , , , , , , , , * O b / } Y V G G G G G G G G G G G G G G G G G G G G G G G G G G ",
"a y 2 : , , , , , , , , , , , , , , , , , , , , , , , * O b / } Y V G G G G G G G G G G G G G G G G G G G G G G G G G G ",
"a y 2 : , , , , , , , , , , , , , , , , , , , , , , , * O b / } Y V G G G G G G G G G G G G G G G G G G G G G G G G G G ",
"s t 2 ; > , , , , , , , , , , , , , , , , , , , , , , * o b / } Y V G G G G G G G G G G G G G G G G G G G G G G G G G G ",
"d u - $ ; : : : : : : : : : : : : : : : : : : : : : : % . v ]  .K B V V V V V V V V V V V V V V V V V V V V V V V V V V ",
"i e 4 - 2 2 2 2 2 2 2 2 2 2 2 2 2 2 2 2 2 2 2 2 2 2 2 < # c ^ ' E H I I U U U U I I I U U I U U U U I U U U U U I I U U ",
"4 5 e u y y y y y y y y y y y y y y y y y y y y y y y r 8 f S Q ) ` _ _ _ _ _ _ _ _ _ _ _ _ _ _ _ _ _ _ _ _ _ _ _ _ _ _ ",
"$ 4 i d s a a a a a a a a a a a a a a a a a a a a a a p 9 g m W { O.o.X.X.X.X.X.X.X.X.X.X.X.X.X.X.X.X.X.X.X.X.X.X.X.X.X."
};
